<svg width="19" height="18" viewBox="0 0 19 18" fill="none" xmlns="http://www.w3.org/2000/svg">
<g clip-path="url(#clip0_77_1148)">
<path d="M15 3H14.25V1.5H12.75V3H6.75V1.5H5.25V3H4.5C3.6675 3 3.0075 3.675 3.0075 4.5L3 15C3 15.825 3.6675 16.5 4.5 16.5H15C15.825 16.5 16.5 15.825 16.5 15V4.5C16.5 3.675 15.825 3 15 3ZM15 15H4.5V7.5H15V15ZM7.5 10.5H6V9H7.5V10.5ZM10.5 10.5H9V9H10.5V10.5ZM13.5 10.5H12V9H13.5V10.5ZM7.5 13.5H6V12H7.5V13.5ZM10.5 13.5H9V12H10.5V13.5ZM13.5 13.5H12V12H13.5V13.5Z" fill="#A70C1E"/>
</g>
<defs>
<clipPath id="clip0_77_1148">
<rect width="18" height="18" fill="white" transform="translate(0.75)"/>
</clipPath>
</defs>
</svg>
