<svg width="16" height="17" viewBox="0 0 16 17" fill="none" xmlns="http://www.w3.org/2000/svg">
<g clip-path="url(#clip0_31_1197)">
<path d="M13.34 10.9098C12.52 10.9098 11.7267 10.7765 10.9867 10.5365C10.7533 10.4565 10.4933 10.5165 10.3133 10.6965L9.26667 12.0098C7.38 11.1098 5.61333 9.40983 4.67333 7.45649L5.97333 6.34983C6.15333 6.16316 6.20667 5.90316 6.13333 5.66983C5.88667 4.92983 5.76 4.13649 5.76 3.31649C5.76 2.95649 5.46 2.65649 5.1 2.65649H2.79333C2.43333 2.65649 2 2.81649 2 3.31649C2 9.50983 7.15333 14.6565 13.34 14.6565C13.8133 14.6565 14 14.2365 14 13.8698V11.5698C14 11.2098 13.7 10.9098 13.34 10.9098Z" fill="white"/>
</g>
<defs>
<clipPath id="clip0_31_1197">
<rect width="16" height="16" fill="white" transform="translate(0 0.656494)"/>
</clipPath>
</defs>
</svg>
