<svg width="17" height="17" viewBox="0 0 17 17" fill="none" xmlns="http://www.w3.org/2000/svg">
<g clip-path="url(#clip0_64_8336)">
<path d="M13.1667 3.41667H12.828L11.372 1.52867C11.1844 1.2872 10.9442 1.09161 10.6698 0.956703C10.3953 0.821794 10.0938 0.751109 9.788 0.75L7.212 0.75C6.9062 0.751109 6.60466 0.821794 6.33022 0.956703C6.05579 1.09161 5.81565 1.2872 5.628 1.52867L4.172 3.41667H3.83333C2.9496 3.41773 2.10237 3.76925 1.47748 4.39415C0.852588 5.01904 0.501059 5.86627 0.5 6.75L0.5 13.4167C0.501059 14.3004 0.852588 15.1476 1.47748 15.7725C2.10237 16.3974 2.9496 16.7489 3.83333 16.75H13.1667C14.0504 16.7489 14.8976 16.3974 15.5225 15.7725C16.1474 15.1476 16.4989 14.3004 16.5 13.4167V6.75C16.4989 5.86627 16.1474 5.01904 15.5225 4.39415C14.8976 3.76925 14.0504 3.41773 13.1667 3.41667ZM6.684 2.34333C6.74645 2.2627 6.82646 2.19738 6.91796 2.15232C7.00945 2.10727 7.11001 2.08367 7.212 2.08333H9.788C9.88997 2.08377 9.9905 2.10741 10.082 2.15246C10.1735 2.1975 10.2535 2.26278 10.316 2.34333L11.144 3.41667H5.856L6.684 2.34333ZM15.1667 13.4167C15.1667 13.9471 14.956 14.4558 14.5809 14.8309C14.2058 15.206 13.6971 15.4167 13.1667 15.4167H3.83333C3.3029 15.4167 2.79419 15.206 2.41912 14.8309C2.04405 14.4558 1.83333 13.9471 1.83333 13.4167V6.75C1.83333 6.21957 2.04405 5.71086 2.41912 5.33579C2.79419 4.96071 3.3029 4.75 3.83333 4.75H13.1667C13.6971 4.75 14.2058 4.96071 14.5809 5.33579C14.956 5.71086 15.1667 6.21957 15.1667 6.75V13.4167Z" fill="#A70C1E"/>
<path d="M8.5 6.08325C7.70888 6.08325 6.93552 6.31785 6.27772 6.75737C5.61992 7.1969 5.10723 7.82161 4.80448 8.55252C4.50173 9.28342 4.42252 10.0877 4.57686 10.8636C4.7312 11.6395 5.11216 12.3523 5.67157 12.9117C6.23098 13.4711 6.94372 13.8521 7.71964 14.0064C8.49556 14.1607 9.29983 14.0815 10.0307 13.7788C10.7616 13.476 11.3864 12.9633 11.8259 12.3055C12.2654 11.6477 12.5 10.8744 12.5 10.0833C12.4989 9.02271 12.0772 8.00591 11.3273 7.25599C10.5773 6.50608 9.56054 6.08431 8.5 6.08325ZM8.5 12.7499C7.97259 12.7499 7.45701 12.5935 7.01848 12.3005C6.57995 12.0075 6.23816 11.591 6.03632 11.1037C5.83449 10.6165 5.78168 10.0803 5.88457 9.56301C5.98747 9.04573 6.24144 8.57057 6.61438 8.19763C6.98732 7.82469 7.46248 7.57072 7.97976 7.46782C8.49704 7.36493 9.03322 7.41774 9.52049 7.61957C10.0078 7.82141 10.4242 8.1632 10.7173 8.60173C11.0103 9.04026 11.1667 9.55584 11.1667 10.0833C11.1667 10.7905 10.8857 11.4688 10.3856 11.9689C9.88552 12.469 9.20725 12.7499 8.5 12.7499Z" fill="#A70C1E"/>
</g>
<defs>
<clipPath id="clip0_64_8336">
<rect width="16" height="16" fill="white" transform="translate(0.5 0.75)"/>
</clipPath>
</defs>
</svg>
