<svg width="16" height="17" viewBox="0 0 16 17" fill="none" xmlns="http://www.w3.org/2000/svg">
<g clip-path="url(#clip0_53_1792)">
<path d="M5.6735 3.46002V2.96002C5.6735 2.61335 5.9535 2.33335 6.30017 2.33335H9.70017C10.0468 2.33335 10.3268 2.61335 10.3268 2.96002V3.46002H11.9935V2.96002C11.9935 1.70002 10.9668 0.666687 9.70017 0.666687H6.30017C5.04017 0.666687 4.00684 1.69335 4.00684 2.96002V3.46002H5.6735Z" fill="#B1B1B1"/>
<path d="M13.7537 4.79333H11.1603H4.84033H2.24699C1.10033 4.79333 0.166992 5.72667 0.166992 6.87334V14.26C0.166992 15.4067 1.10033 16.34 2.24699 16.34H4.84033H11.1537H13.747C14.8937 16.34 15.827 15.4067 15.827 14.26V6.87334C15.8337 5.72667 14.9003 4.79333 13.7537 4.79333ZM1.83366 14.2533V6.87334C1.83366 6.64667 2.02033 6.46 2.24699 6.46H4.00699V14.6667H2.24699C2.02033 14.6667 1.83366 14.48 1.83366 14.2533ZM14.167 14.2533C14.167 14.48 13.9803 14.6667 13.7537 14.6667H11.9937V6.46H13.7537C13.9803 6.46 14.167 6.64667 14.167 6.87334V14.2533Z" fill="#B1B1B1"/>
</g>
<defs>
<clipPath id="clip0_53_1792">
<rect width="16" height="16" fill="white" transform="translate(0 0.5)"/>
</clipPath>
</defs>
</svg>
