<svg width="16" height="17" viewBox="0 0 16 17" fill="none" xmlns="http://www.w3.org/2000/svg">
<g clip-path="url(#clip0_53_1786)">
<path d="M3.33353 4.5C4.2542 4.5 5.0002 3.754 5.0002 2.83333C5.0002 1.91333 4.2542 1.16667 3.33353 1.16667C2.41353 1.16667 1.66686 1.91333 1.66686 2.83333C1.66686 3.754 2.41353 4.5 3.33353 4.5ZM12.6669 4.5C13.5875 4.5 14.3335 3.754 14.3335 2.83333C14.3335 1.91333 13.5875 1.16667 12.6669 1.16667C11.7462 1.16667 11.0002 1.91267 11.0002 2.83333C11.0002 3.754 11.7469 4.5 12.6669 4.5ZM7.94286 3.83333C8.86353 3.83333 9.60953 3.08733 9.60953 2.16667C9.60953 1.246 8.86353 0.5 7.94286 0.5C7.0222 0.5 6.2762 1.246 6.2762 2.16667C6.2762 3.08733 7.02286 3.83333 7.94286 3.83333ZM4.72686 11.3173C4.38953 10.9393 4.22953 10.4287 4.28753 9.916L4.72953 6.044C4.74553 5.904 4.77686 5.76933 4.81353 5.638C4.83753 5.552 4.82553 5.46 4.78086 5.382C4.73686 5.30467 4.66286 5.24867 4.57686 5.226C4.42286 5.186 4.28953 5.16733 4.1562 5.16733H2.5102C1.67153 5.16733 0.960197 5.79467 0.856864 6.62733L0.429531 10.0433C0.394197 10.328 0.482197 10.614 0.672197 10.8293C0.847531 11.028 1.09353 11.148 1.3562 11.1653L1.66753 15.5247C1.6802 15.6993 1.82486 15.834 2.0002 15.834H4.66686C4.84153 15.834 4.98686 15.6987 4.99953 15.5247L5.2562 11.9333C5.26553 11.8093 5.20486 11.6913 5.09953 11.6267C4.9562 11.5367 4.83086 11.4327 4.72686 11.3173ZM10.9355 9.99133L10.4935 6.11867C10.3882 5.196 9.65753 4.5 8.7942 4.5H7.0922C6.22886 4.5 5.49753 5.196 5.39286 6.11867L4.95086 9.99067C4.91353 10.3147 5.01353 10.636 5.22486 10.8733C5.40686 11.0773 5.6482 11.1953 5.90953 11.21L6.27753 16.1913C6.2902 16.3647 6.43553 16.5 6.6102 16.5H9.27687C9.45153 16.5 9.5962 16.3653 9.60953 16.1913L9.97753 11.21C10.2395 11.1953 10.4802 11.0767 10.6622 10.8733C10.8729 10.6373 10.9722 10.3147 10.9355 9.99133ZM15.5702 10.0433L15.1429 6.62667C15.0389 5.79467 14.3282 5.16667 13.4895 5.16667H11.8435C11.6582 5.16667 11.4715 5.19933 11.2882 5.26467C11.1242 5.32267 11.0329 5.49667 11.0775 5.66467C11.1102 5.788 11.1409 5.91333 11.1562 6.04333L11.5982 9.91533C11.6562 10.428 11.4962 10.9387 11.1589 11.3167C11.0855 11.3993 10.9955 11.4767 10.8775 11.5613C10.7829 11.6287 10.7302 11.7407 10.7389 11.856L11.0009 15.5233C11.0135 15.698 11.1582 15.8333 11.3335 15.8333H14.0002C14.1749 15.8333 14.3202 15.698 14.3329 15.524L14.6442 11.1647C14.9069 11.1473 15.1529 11.0273 15.3282 10.8287C15.5175 10.6133 15.6062 10.328 15.5702 10.0433Z" fill="#B1B1B1"/>
</g>
<defs>
<clipPath id="clip0_53_1786">
<rect width="16" height="16" fill="white" transform="translate(0 0.5)"/>
</clipPath>
</defs>
</svg>
