<svg width="21" height="21" viewBox="0 0 21 21" fill="none" xmlns="http://www.w3.org/2000/svg">
<g clip-path="url(#clip0_31_1219)">
<path d="M15.7886 11.2919C15.8086 9.73357 16.6253 8.29441 17.9528 7.47857C17.112 6.27691 15.7528 5.54274 14.287 5.49691C12.7445 5.33524 11.2495 6.41941 10.4636 6.41941C9.6628 6.41941 8.4528 5.51274 7.14947 5.53941C5.4353 5.59524 3.8753 6.54607 3.04113 8.04524C1.2653 11.1202 2.58947 15.6402 4.29113 18.1261C5.1428 19.3436 6.13697 20.7027 7.43947 20.6552C8.71363 20.6027 9.18947 19.8427 10.727 19.8427C12.2503 19.8427 12.697 20.6552 14.0253 20.6244C15.392 20.6019 16.2536 19.4019 17.0753 18.1727C17.687 17.3052 18.1578 16.3469 18.4695 15.3327C16.8461 14.6461 15.7903 13.0552 15.7886 11.2919Z" fill="#2A2A31"/>
<path d="M13.2797 3.86208C14.0247 2.96708 14.3922 1.81708 14.303 0.65625C13.1647 0.77625 12.1122 1.32042 11.3572 2.18042C10.6113 3.02958 10.233 4.13958 10.3063 5.26792C11.4605 5.27958 12.5563 4.76125 13.2797 3.86208Z" fill="#2A2A31"/>
</g>
<defs>
<clipPath id="clip0_31_1219">
<rect width="20" height="20" fill="white" transform="translate(0.333496 0.65625)"/>
</clipPath>
</defs>
</svg>
