<svg width="20" height="21" viewBox="0 0 20 21" fill="none" xmlns="http://www.w3.org/2000/svg">
<g clip-path="url(#clip0_40_1579)">
<path d="M16.3176 0.125H13.0318L10.0446 2.37075L6.9625 0.125H3.67669C2.74456 0.125187 1.84709 0.478351 1.16481 1.11345C0.445189 1.78691 2.46013 2.93559 2.46013 4.00008L-0.00830078 4.55948V7.0958L0.781916 10.3382L-0.00830078 13.1569V15.829L2.26189 16.3314C2.26189 17.4393 0.483209 18.5038 1.25985 19.1773C1.92977 19.7608 2.78829 20.082 3.67669 20.0815H7.01682L10.137 17.7733L12.9747 20.087H16.3094C17.2304 20.0879 18.1182 19.7429 18.7969 19.1202C19.5328 18.4468 17.8546 16.7876 17.8546 15.7122L19.9944 15.8344V13.1569L19.2123 10.1264L20.0026 7.10395V4.42371L17.8627 3.70952C17.8627 2.64502 19.5491 1.79234 18.8294 1.11888C18.148 0.481801 17.2504 0.126661 16.3176 0.125Z" fill="#004CBA"/>
<path d="M18.8269 1.11618L10.0014 8.01638L1.17583 1.11618C0.805368 1.46039 0.509778 1.87722 0.30748 2.34068C0.105182 2.80414 0.000515491 3.30431 9.64699e-09 3.81V4.42371L7.3021 10.1264L9.64699e-09 15.829V16.3966C-3.70498e-05 16.9078 0.106701 17.4135 0.313388 17.8811C0.520076 18.3487 0.822152 18.768 1.20027 19.1121L10.0014 12.2309L18.8024 19.1121C19.1806 18.768 19.4826 18.3487 19.6893 17.8811C19.896 17.4135 20.0027 16.9078 20.0027 16.3966V15.829L12.7006 10.1264L20.0027 4.42371V3.81543C20.0029 3.30883 19.8986 2.80762 19.6963 2.34317C19.494 1.87872 19.198 1.46102 18.8269 1.11618Z" fill="white"/>
<path d="M19.7202 2.39791C19.5883 2.08174 19.4128 1.78558 19.1988 1.51807L11.4649 7.56287L10.0012 8.01637L6.94353 7.60632L0.282297 2.39791C0.121989 2.78843 0.0301282 3.20364 0.0107422 3.62533L6.68827 8.84461L7.30199 10.1264L6.74258 12.8039L0.29588 17.8466C0.431314 18.1611 0.609501 18.4553 0.825406 18.7211L8.70049 12.5622L10.0012 12.2363L13.0155 12.6138L19.7066 17.8466C19.8674 17.4591 19.9593 17.0465 19.9782 16.6274L13.1323 11.2723L12.7005 10.1264L13.1649 7.52214L19.7202 2.39791Z" fill="#F4002F"/>
<path d="M0 7.09581H20V13.1569H0V7.09581Z" fill="white"/>
<path d="M6.9707 0.125H13.0318V20.125H6.9707V0.125Z" fill="white"/>
<path d="M8.02979 0.125H11.97V20.125H8.02979V0.125Z" fill="#F4002F"/>
<path d="M0 8.125H20V12.125H0V8.125Z" fill="#F4002F"/>
</g>
<defs>
<clipPath id="clip0_40_1579">
<rect width="20" height="20" fill="white" transform="translate(0 0.125)"/>
</clipPath>
</defs>
</svg>
