<svg width="206" height="44" viewBox="0 0 206 44" fill="none" xmlns="http://www.w3.org/2000/svg">
<path d="M69.3967 7.7005H70.1806C72.9023 7.76016 75.5796 8.86385 77.5026 10.8177C76.7926 11.5485 76.0678 12.2495 75.3726 12.9803C74.2928 11.996 72.9911 11.2353 71.5711 10.9668C69.4706 10.5194 67.2075 10.9221 65.4473 12.1302C63.5243 13.398 62.2227 15.5457 61.9416 17.8426C61.631 20.1096 62.267 22.496 63.7314 24.2559C65.1366 25.9711 67.2814 27.045 69.5002 27.1196C71.5711 27.2389 73.7307 26.5975 75.2394 25.1359C76.4228 24.1068 76.9701 22.5407 77.1476 21.0194C74.6921 21.0194 72.2367 21.0343 69.7813 21.0194V17.947H80.1207C80.6532 21.2431 79.8841 24.9569 77.399 27.3134C75.7424 28.9839 73.4496 29.9683 71.1125 30.1622C68.8494 30.3859 66.5123 29.9534 64.5006 28.8497C62.0895 27.5521 60.1666 25.3596 59.2199 22.7794C58.3324 20.4079 58.3176 17.7232 59.146 15.3369C59.9003 13.1593 61.3499 11.2353 63.2137 9.89297C65.0035 8.56556 67.1779 7.83473 69.3967 7.7005Z" fill="#3780FF"/>
<path d="M128.712 8.47607H131.878V29.7744C130.828 29.7744 129.763 29.7893 128.712 29.7595C128.727 22.675 128.712 15.5755 128.712 8.47607Z" fill="#38B137"/>
<path d="M87.1617 15.8589C89.1142 15.486 91.2294 15.9036 92.8417 17.0819C94.3061 18.1259 95.3268 19.7665 95.6374 21.5563C96.0368 23.6295 95.5338 25.8965 94.2026 27.5371C92.7678 29.3717 90.4159 30.356 88.1232 30.2069C86.0227 30.0876 83.9814 29.0286 82.7389 27.2985C81.3337 25.3894 80.9935 22.7644 81.7627 20.5272C82.5319 18.1259 84.7062 16.2914 87.1617 15.8589ZM87.6054 18.6927C86.8067 18.9015 86.0671 19.3638 85.5346 20.0201C84.0998 21.7502 84.1885 24.5691 85.7713 26.1799C86.6736 27.1046 88.0344 27.5371 89.2917 27.2836C90.4603 27.0748 91.4809 26.2843 92.043 25.2403C93.0192 23.4654 92.7382 21.0194 91.2442 19.6323C90.2828 18.7374 88.8775 18.3646 87.6054 18.6927Z" fill="#FA3913"/>
<path d="M102.841 15.8589C105.075 15.4263 107.515 16.0528 109.187 17.6337C111.908 20.0947 112.204 24.7033 109.882 27.5371C108.477 29.3269 106.199 30.3113 103.951 30.2069C101.806 30.1472 99.6905 29.0734 98.4184 27.2985C96.9836 25.3447 96.6729 22.66 97.4865 20.378C98.3 18.0513 100.43 16.2765 102.841 15.8589ZM103.285 18.6927C102.486 18.9015 101.747 19.3638 101.214 20.0052C99.794 21.7055 99.8532 24.4796 101.377 26.1053C102.279 27.0748 103.684 27.5521 104.986 27.2836C106.14 27.0599 107.175 26.2843 107.737 25.2403C108.699 23.4505 108.418 21.0045 106.909 19.6174C105.947 18.7225 104.542 18.3646 103.285 18.6927Z" fill="#FCBD06"/>
<path d="M116.139 16.7239C117.84 15.65 120.103 15.3517 121.937 16.2765C122.514 16.53 122.987 16.9625 123.446 17.3951C123.461 16.9924 123.446 16.5748 123.461 16.1571C124.452 16.1721 125.443 16.1571 126.449 16.1721V29.3269C126.434 31.3106 125.931 33.4136 124.511 34.8603C122.958 36.4562 120.576 36.9484 118.432 36.6202C116.139 36.2772 114.142 34.5918 113.254 32.459C114.142 32.0265 115.074 31.6834 115.991 31.2807C116.509 32.5038 117.559 33.5478 118.875 33.7864C120.192 34.0251 121.715 33.6969 122.573 32.5932C123.49 31.4597 123.49 29.9086 123.446 28.5215C122.766 29.1927 121.982 29.7893 121.035 30.013C118.979 30.5947 116.716 29.8787 115.133 28.4768C113.536 27.0748 112.589 24.9121 112.678 22.7644C112.722 20.3333 114.083 17.9917 116.139 16.7239ZM119.201 18.633C118.298 18.7821 117.455 19.2892 116.878 19.9902C115.488 21.6607 115.488 24.3304 116.893 25.9711C117.692 26.9405 118.979 27.4775 120.221 27.3432C121.39 27.2239 122.47 26.4782 123.047 25.4491C124.023 23.704 123.86 21.3326 122.544 19.8113C121.73 18.8716 120.429 18.4093 119.201 18.633Z" fill="#3780FF"/>
<path d="M135.679 17.4845C137.454 15.8141 140.191 15.2473 142.469 16.1273C144.628 16.9476 146.004 19.0208 146.699 21.1536C143.489 22.4959 140.294 23.8233 137.084 25.1656C137.528 26.0158 138.209 26.7914 139.126 27.1046C140.413 27.5669 141.951 27.4029 143.031 26.5378C143.46 26.2097 143.8 25.7772 144.125 25.3595C144.939 25.9114 145.752 26.4483 146.566 27.0002C145.412 28.7452 143.475 29.9682 141.389 30.1621C139.081 30.4455 136.626 29.5506 135.132 27.731C132.677 24.8673 132.913 20.0648 135.679 17.4845ZM137.262 20.2438C136.759 20.9746 136.552 21.8695 136.567 22.7494C138.712 21.8546 140.856 20.9597 143.001 20.0499C142.646 19.2146 141.788 18.7075 140.916 18.5733C139.51 18.3198 138.046 19.0804 137.262 20.2438Z" fill="#FA3913"/>
</svg>
