<svg width="104" height="30" viewBox="0 0 104 30" fill="none" xmlns="http://www.w3.org/2000/svg">
<path d="M61.2158 13.8125H59.4033V5.8125H59.3486L56.0908 13.7188H54.7158L51.458 5.8125H51.4033V13.8125H49.583V2.53906H51.9189L55.3721 11.0469H55.4346L58.8877 2.53906H61.2158V13.8125ZM63.2196 13.8125V5.53125H65.1649V13.8125H63.2196ZM64.9539 4.14062C64.7456 4.34375 64.4904 4.44531 64.1883 4.44531C63.8862 4.44531 63.631 4.34375 63.4227 4.14062C63.2144 3.93229 63.1102 3.68229 63.1102 3.39062C63.1102 3.09375 63.2144 2.84375 63.4227 2.64062C63.631 2.43229 63.8862 2.32812 64.1883 2.32812C64.4904 2.32812 64.7456 2.43229 64.9539 2.64062C65.1675 2.84375 65.2743 3.09375 65.2743 3.39062C65.2743 3.68229 65.1675 3.93229 64.9539 4.14062ZM67.0124 13.8125V2.53906H68.9577V13.8125H67.0124ZM73.7974 12.4766C74.3547 12.4766 74.8234 12.3125 75.2036 11.9844C75.589 11.651 75.7818 11.237 75.7818 10.7422V10.1094L73.8677 10.2266C73.3989 10.2578 73.0344 10.375 72.7739 10.5781C72.5187 10.776 72.3911 11.0391 72.3911 11.3672C72.3911 11.7057 72.5187 11.9766 72.7739 12.1797C73.0344 12.3776 73.3755 12.4766 73.7974 12.4766ZM73.2114 13.9453C72.4042 13.9453 71.7401 13.7135 71.2193 13.25C70.7036 12.7865 70.4458 12.1849 70.4458 11.4453C70.4458 10.7109 70.7167 10.1302 71.2583 9.70312C71.8052 9.27604 72.5838 9.03125 73.5943 8.96875L75.7818 8.84375V8.25C75.7818 7.81771 75.6437 7.48177 75.3677 7.24219C75.0969 7.0026 74.7193 6.88281 74.2349 6.88281C73.7818 6.88281 73.412 6.98438 73.1255 7.1875C72.839 7.39062 72.6646 7.66667 72.6021 8.01562H70.7974C70.839 7.22917 71.175 6.59115 71.8052 6.10156C72.4406 5.60677 73.2765 5.35938 74.313 5.35938C75.339 5.35938 76.1594 5.60938 76.7739 6.10938C77.3937 6.60938 77.7036 7.27604 77.7036 8.10938V13.8125H75.8286V12.4922H75.7896C75.5552 12.9349 75.201 13.2891 74.7271 13.5547C74.2531 13.8151 73.7479 13.9453 73.2114 13.9453ZM79.4339 13.8125V5.53125H81.3011V6.95312H81.3402C81.5694 6.45312 81.9027 6.0651 82.3402 5.78906C82.7829 5.51302 83.3168 5.375 83.9418 5.375C84.848 5.375 85.5511 5.64844 86.0511 6.19531C86.5563 6.74219 86.8089 7.4974 86.8089 8.46094V13.8125H84.8636V8.85156C84.8636 8.25781 84.723 7.80469 84.4418 7.49219C84.1657 7.17969 83.7543 7.02344 83.2074 7.02344C82.6501 7.02344 82.2048 7.20573 81.8714 7.57031C81.5433 7.9349 81.3793 8.41667 81.3793 9.01562V13.8125H79.4339Z" fill="#A70C1E"/>
<path d="M53.2734 27.8125H52.043V19.0557H48.9326V17.9482H56.3838V19.0557H53.2734V27.8125ZM56.0658 27.8125V20.7031H57.1869V21.8652H57.2142C57.4466 21.0791 58.1029 20.5801 58.9369 20.5801C59.142 20.5801 59.3197 20.6143 59.4154 20.6279V21.7832C59.3197 21.749 59.0668 21.7148 58.7796 21.7148C57.8568 21.7148 57.2552 22.3779 57.2552 23.3828V27.8125H56.0658ZM62.7341 26.9238C63.8552 26.9238 64.7165 26.1377 64.7165 25.1123V24.5312L62.8161 24.6475C61.8591 24.709 61.3122 25.1328 61.3122 25.8027C61.3122 26.4795 61.8796 26.9238 62.7341 26.9238ZM62.4675 27.9355C61.0525 27.9355 60.1023 27.0811 60.1023 25.8027C60.1023 24.5859 61.0388 23.8203 62.6794 23.7246L64.7165 23.6084V23.0137C64.7165 22.1455 64.1423 21.626 63.1579 21.626C62.2419 21.626 61.6677 22.0566 61.5173 22.7539H60.3689C60.4509 21.5234 61.5036 20.5801 63.1853 20.5801C64.8532 20.5801 65.906 21.4824 65.906 22.8975V27.8125H64.778V26.5889H64.7507C64.3269 27.4023 63.4245 27.9355 62.4675 27.9355ZM67.5567 27.8125V20.7031H68.6778V21.8379H68.7052C69.1016 21.0723 69.8604 20.5801 70.961 20.5801C72.5196 20.5801 73.422 21.585 73.422 23.1982V27.8125H72.2325V23.4102C72.2325 22.2617 71.6925 21.6328 70.5987 21.6328C69.4776 21.6328 68.7462 22.4258 68.7462 23.6289V27.8125H67.5567ZM74.9565 22.665C74.9565 21.4482 76.0434 20.5801 77.6088 20.5801C79.0786 20.5801 80.1586 21.4551 80.2133 22.6582H79.0786C78.9965 21.9746 78.4428 21.5508 77.5678 21.5508C76.6996 21.5508 76.1254 21.9814 76.1254 22.6035C76.1254 23.0957 76.5014 23.4238 77.308 23.6289L78.4086 23.8955C79.8442 24.2578 80.3637 24.7773 80.3637 25.8232C80.3637 27.0605 79.1948 27.9355 77.5336 27.9355C75.975 27.9355 74.8881 27.0879 74.7651 25.8301H75.9545C76.0844 26.5684 76.645 26.9648 77.6088 26.9648C78.5727 26.9648 79.1674 26.5547 79.1674 25.9121C79.1674 25.4062 78.8735 25.1328 78.0737 24.9209L76.8227 24.5996C75.5717 24.2783 74.9565 23.6357 74.9565 22.665ZM82.1238 27.8125V21.6807H81.1326V20.7031H82.1238V19.9102C82.1238 18.543 82.7596 17.8936 84.0721 17.8936C84.3387 17.8936 84.6258 17.9209 84.7967 17.9482V18.9121C84.6531 18.8916 84.4549 18.8711 84.2566 18.8711C83.6141 18.8711 83.3064 19.2129 83.3064 19.917V20.7031H84.7625V21.6807H83.3133V27.8125H82.1238ZM88.6418 21.6123C87.5275 21.6123 86.7482 22.4668 86.673 23.6494H90.5353C90.508 22.46 89.7629 21.6123 88.6418 21.6123ZM90.508 25.7754H91.6769C91.4718 27.0195 90.2687 27.9355 88.717 27.9355C86.6798 27.9355 85.4425 26.5205 85.4425 24.2852C85.4425 22.0771 86.7004 20.5801 88.6623 20.5801C90.5832 20.5801 91.7658 21.9746 91.7658 24.1279V24.5791H86.6662V24.6475C86.6662 26.0078 87.466 26.9033 88.7443 26.9033C89.6466 26.9033 90.3097 26.4453 90.508 25.7754ZM93.1089 27.8125V20.7031H94.23V21.8652H94.2573C94.4898 21.0791 95.146 20.5801 95.98 20.5801C96.1851 20.5801 96.3628 20.6143 96.4585 20.6279V21.7832C96.3628 21.749 96.1099 21.7148 95.8228 21.7148C94.8999 21.7148 94.2984 22.3779 94.2984 23.3828V27.8125H93.1089ZM97.4462 22.665C97.4462 21.4482 98.5331 20.5801 100.099 20.5801C101.568 20.5801 102.648 21.4551 102.703 22.6582H101.568C101.486 21.9746 100.932 21.5508 100.057 21.5508C99.1893 21.5508 98.6151 21.9814 98.6151 22.6035C98.6151 23.0957 98.9911 23.4238 99.7977 23.6289L100.898 23.8955C102.334 24.2578 102.853 24.7773 102.853 25.8232C102.853 27.0605 101.684 27.9355 100.023 27.9355C98.4647 27.9355 97.3778 27.0879 97.2548 25.8301H98.4442C98.5741 26.5684 99.1346 26.9648 100.099 26.9648C101.062 26.9648 101.657 26.5547 101.657 25.9121C101.657 25.4062 101.363 25.1328 100.563 24.9209L99.3124 24.5996C98.0614 24.2783 97.4462 23.6357 97.4462 22.665Z" fill="#2A2A31"/>
<g clip-path="url(#clip0_248_1248)">
<path fill-rule="evenodd" clip-rule="evenodd" d="M28.549 5.61618C25.3493 5.75173 22.6727 6.23969 19.8873 7.19526C17.3384 8.06973 15.0606 9.2443 13.3452 10.5688C13.1375 10.7291 13.1192 10.7502 13.1192 10.8289C13.1192 10.8953 13.1326 10.9208 13.1787 10.9424C13.2317 10.9672 13.2733 10.9486 13.5635 10.7699C15.3069 9.69659 17.9852 8.57048 20.3271 7.92604C22.9228 7.21181 25.417 6.81766 28.1214 6.69439C28.8318 6.66202 30.5965 6.66204 31.2856 6.69442C32.7445 6.76298 34.3243 6.92594 35.8011 7.16015C36.328 7.24371 37.385 7.43517 37.6723 7.49914L37.804 7.52845L37.3913 7.74641C36.7159 8.10309 35.9564 8.62139 35.1734 9.25999C34.2588 10.0059 33.6467 10.6657 32.9898 11.6137C32.8521 11.8125 32.7399 11.9991 32.7404 12.0283C32.741 12.0575 32.7802 12.1266 32.8276 12.1818L32.9138 12.2823L33.3947 12.2983C33.6592 12.3071 34.0295 12.3321 34.2176 12.3538C34.8393 12.4257 35.3094 12.4529 35.9524 12.4541C36.9947 12.456 37.3858 12.3723 37.6539 12.0901C37.795 11.9415 37.8616 11.8022 37.9121 11.5499C37.9886 11.1676 37.8731 10.6788 37.646 10.4234C37.4784 10.2348 37.4389 10.2255 36.8955 10.2465C35.8543 10.2867 35.3749 10.3657 35.0389 10.5524L34.8289 10.6691L34.9862 10.4962C36.0508 9.32623 37.553 8.36076 38.9633 7.94008L39.262 7.85097L39.9773 8.03683C41.2136 8.35814 43.4437 9.04141 44.4064 9.39387C45.6024 9.83172 46.1016 10.0093 46.1365 10.0093C46.1587 10.0093 46.195 9.98058 46.2174 9.94547C46.2896 9.83217 46.2416 9.78726 45.8443 9.59645C45.6448 9.50061 45.2666 9.31771 45.004 9.19002C44.4552 8.92319 43.0793 8.32778 42.43 8.07609C41.1083 7.56377 39.1361 6.94224 37.6761 6.57795C34.7915 5.85825 31.363 5.49695 28.549 5.61618ZM55.4138 11.1395V15.5098H56.5131H57.6125L57.6188 13.0259L57.625 10.542L58.1663 11.5628C58.4641 12.1243 58.8544 12.8629 59.0337 13.2042L59.3598 13.8247L59.9711 13.8258L60.5825 13.827L61.4355 12.218C61.9047 11.3331 62.3027 10.5899 62.32 10.5666C62.3456 10.532 62.3515 10.9821 62.3521 13.017L62.3529 15.5098H63.4402H64.5275V11.1395V6.76929L63.4341 6.77012L62.3407 6.77092L62.0963 7.23974C61.962 7.49761 61.6612 8.07084 61.4279 8.51359C60.8474 9.61537 60.3746 10.5144 60.1822 10.8821C60.0937 11.0513 60.0154 11.1896 60.0082 11.1893C60.001 11.1891 59.9233 11.0506 59.8355 10.8816C59.7478 10.7127 59.2208 9.71827 58.6645 8.67185L57.653 6.76929H56.5334H55.4138V11.1395ZM66.36 11.1395V15.5098H67.4473H68.5346V11.1395V6.76929H67.4473H66.36V11.1395ZM70.3671 11.1395V15.5098H73.2747H76.1823V14.593V13.6763H74.362H72.5417V10.2228V6.76929H71.4544H70.3671V11.1395ZM79.8833 6.80068C79.8771 6.81796 79.6201 7.54413 79.3124 8.41441C79.0046 9.28468 78.3821 11.0422 77.9291 12.32C77.4761 13.5978 77.0367 14.8382 76.9527 15.0765L76.7999 15.5098H77.8321H78.8642L79.0057 15.1016C79.0835 14.8772 79.2141 14.5013 79.2959 14.2665L79.4447 13.8395L80.8523 13.833C81.9603 13.8279 82.2651 13.8333 82.284 13.8582C82.2972 13.8755 82.4333 14.2542 82.5864 14.6996L82.8649 15.5095L84.022 15.5096C85.1143 15.5098 85.1781 15.5073 85.1619 15.4658C85.1456 15.4242 84.9609 14.9037 83.4887 10.7502C83.1509 9.79706 82.6964 8.51161 82.4787 7.89364L82.083 6.77012L80.9889 6.76969C80.1356 6.76939 79.8922 6.7762 79.8833 6.80068ZM86.1512 11.1395V15.5098H87.2385H88.3258L88.3266 13.0798C88.3274 10.7799 88.3297 10.6525 88.3694 10.7018C88.3924 10.7305 89.1314 11.824 90.0115 13.1318L91.6117 15.5098H92.6442H93.6768V11.1395V6.76929H92.5284H91.38V9.19859C91.38 11.561 91.3787 11.6265 91.3349 11.5784C91.3101 11.5511 90.753 10.732 90.0968 9.75813C89.4406 8.78424 88.8414 7.89701 88.7653 7.7865C88.6892 7.67599 88.5035 7.40192 88.3525 7.17743L88.0781 6.76929H87.1146H86.1512V11.1395ZM42.3957 8.9858C42.3818 9.00308 42.2589 9.46364 42.1225 10.0093C41.9861 10.5549 41.7708 11.4149 41.6439 11.9204C41.5171 12.4258 41.4133 12.868 41.4133 12.9031C41.4133 12.9382 41.4271 12.9785 41.4439 12.9927C41.4607 13.0069 41.6708 13.0547 41.911 13.0988C42.336 13.1771 42.3487 13.178 42.3924 13.1326C42.4332 13.0902 42.4428 12.9584 42.4997 11.6544C42.5341 10.867 42.5731 9.98543 42.5863 9.69534C42.6171 9.02237 42.6174 9.0404 42.5722 8.99386C42.5261 8.94654 42.4309 8.9422 42.3957 8.9858ZM80.765 9.83877C80.7142 10.0075 80.5435 10.5641 80.3855 11.0758C80.2275 11.5874 80.0905 12.0315 80.0811 12.0625L80.0639 12.1191H80.8597C81.3007 12.1191 81.6554 12.1092 81.6554 12.097C81.6554 12.0848 81.5301 11.6695 81.377 11.174C81.2238 10.6784 81.0473 10.1063 80.9847 9.90254C80.9222 9.69878 80.8679 9.53208 80.8641 9.53208C80.8604 9.53208 80.8158 9.67009 80.765 9.83877ZM27.4495 10.5797C26.8038 10.5887 24.3165 10.6809 23.4913 10.7265C18.0035 11.0292 12.7047 11.8219 9.21193 12.8627C6.16721 13.77 4.36675 14.6681 3.27039 15.8267L3.01173 16.1L3.00162 16.64C2.99605 16.937 2.99182 17.9938 2.99221 18.9884C2.99292 20.794 3.01183 21.3858 3.08946 22.0322C3.13056 22.3742 3.15804 22.4843 3.22976 22.5937C3.30638 22.7106 3.4057 22.7631 3.60357 22.7914C3.75412 22.813 4.85713 22.8851 5.27409 22.9006L5.43093 22.9065L5.53631 23.1828C6.08638 24.625 6.99001 25.5825 8.00459 25.7982C8.42358 25.8872 9.14693 25.7962 9.21349 25.646C9.25498 25.5524 9.20638 25.4996 8.99801 25.412C8.38084 25.1526 7.756 24.4811 7.34447 23.6349C7.21468 23.368 7.05029 22.9694 7.06483 22.9568C7.06874 22.9534 7.63266 22.9656 8.31803 22.9839C9.00339 23.0021 10.0809 23.03 10.7125 23.0458C13.6753 23.1201 26.4439 23.0956 26.5897 23.0154C26.6458 22.9845 26.6428 22.9411 26.5451 22.3701C26.4869 22.0302 26.4661 21.9536 26.4246 21.9262C26.3271 21.8618 17.1912 21.9514 9.68631 22.0903C7.45552 22.1317 5.19407 22.1655 4.66086 22.1655L3.69138 22.1656L3.67381 22.0212C3.62961 21.6575 3.6885 20.9798 3.90793 19.3274C3.97491 18.8232 4.04349 18.2864 4.06035 18.1344L4.09102 17.8581L4.372 17.8521C4.52654 17.8488 5.93942 17.8232 7.51172 17.7953C9.08402 17.7674 10.8927 17.7334 11.531 17.7197C12.1694 17.706 13.2139 17.6836 13.8522 17.6699C14.4906 17.6562 17.0769 17.6449 19.5997 17.6448L24.1865 17.6446L24.2239 17.586C24.2542 17.5384 24.2566 17.5025 24.2367 17.3942C24.2044 17.2193 24.2052 16.6701 24.2381 16.422C24.2729 16.16 24.37 15.769 24.4596 15.5302C24.5346 15.3303 24.5317 15.2589 24.4471 15.2256C24.4279 15.218 23.4957 15.2445 22.3757 15.2846C21.2557 15.3247 19.5367 15.3859 18.5557 15.4206C17.5747 15.4553 16.7065 15.4962 16.6264 15.5116C16.4504 15.5453 16.23 15.6558 16.1023 15.7744C16.0505 15.8225 15.8306 16.1256 15.6134 16.4479L15.2187 17.034L14.0896 17.0513C13.4685 17.0608 12.3227 17.079 11.5433 17.0918C10.7638 17.1045 9.90635 17.1176 9.63778 17.1209L9.14945 17.127L8.84369 16.7154C8.59904 16.3861 8.50722 16.2823 8.38422 16.196C8.08742 15.9879 8.2329 15.9983 5.77693 16.0088L3.60234 16.018L3.71642 15.9275C4.59523 15.2305 6.33798 14.5076 8.50128 13.9426C9.88058 13.5824 12.1765 13.122 14.2096 12.7979C14.8981 12.6882 16.4175 12.4693 17.5173 12.3215C18.5442 12.1834 20.9985 11.8986 22.9415 11.692C25.2562 11.4459 25.6981 11.4021 28.5124 11.14C29.9973 11.0018 31.2375 10.8826 31.2683 10.8752C31.3685 10.8512 31.3882 10.687 31.2971 10.6368C31.257 10.6147 28.484 10.5552 28.0848 10.5678C27.9907 10.5708 27.7049 10.5761 27.4495 10.5797ZM47.6649 10.6852C47.6078 10.7327 47.6072 10.7385 47.6072 11.2245C47.6072 11.6825 47.6106 11.7192 47.6561 11.7655C47.7086 11.8188 47.7843 11.8366 49.6352 12.2299C50.1862 12.347 51.1428 12.5508 51.7609 12.6828C52.9709 12.9413 52.9805 12.9422 53.0405 12.8069C53.0793 12.7194 53.075 12.6602 53.0254 12.6009C52.9974 12.5673 52.4943 12.3677 51.5655 12.0216C50.786 11.7312 49.632 11.3009 49.001 11.0654C48.3699 10.8299 47.8242 10.6372 47.7881 10.6372C47.7521 10.6372 47.6966 10.6588 47.6649 10.6852ZM33.6728 13.2292C33.6179 13.2856 33.6432 13.3751 33.8115 13.7205C34.3083 14.7403 34.6766 16.03 34.8745 17.4437C35.001 18.3472 35.0219 18.7013 35.0222 19.9428C35.0225 20.9797 35.0157 21.184 34.956 21.9364C34.9195 22.3975 34.8895 22.8013 34.8895 22.8338C34.8895 22.8674 34.9132 22.9084 34.9445 22.9292C34.9933 22.9615 35.0775 22.956 35.6959 22.88C39.4201 22.4222 43.0214 21.9159 43.1137 21.8371C43.1666 21.792 43.1568 21.6698 43.0977 21.6373C43.0281 21.599 42.5145 21.4991 42.1463 21.4522C41.5974 21.3823 41.2651 21.3598 40.5581 21.3448C39.5258 21.3228 38.8223 21.3672 37.0572 21.5659C36.5494 21.6231 36.1281 21.6638 36.121 21.6565C36.1138 21.6492 36.1198 21.5149 36.1342 21.3581C36.1779 20.8832 36.1937 19.5909 36.1626 19.0386C36.108 18.07 35.9882 17.1596 35.8526 16.683C35.6678 16.0339 35.3099 15.2095 35.0183 14.7612C34.8168 14.4513 34.1492 13.5789 33.8855 13.2807C33.8109 13.1964 33.7249 13.1755 33.6728 13.2292ZM29.6608 13.3901C29.3403 13.4786 29.0615 13.6623 28.7807 13.9699C28.007 14.8175 27.47 16.4128 27.2648 18.4735C27.2229 18.8933 27.2073 20.3424 27.2395 20.8113C27.3942 23.0645 27.9671 24.8586 28.8141 25.7423C29.1913 26.1358 29.5803 26.3334 29.9798 26.3345C30.2314 26.3352 30.2731 26.2342 30.1101 26.0193C29.4012 25.0842 28.9516 23.6446 28.7653 21.7135C28.7075 21.1134 28.7076 19.7864 28.7655 19.2018C28.8153 18.6998 28.861 18.3692 28.9425 17.9209C29.3215 15.8364 30.1578 14.3955 31.0779 14.2415C31.214 14.2188 31.2489 14.191 31.2489 14.1058C31.2489 13.9861 30.8818 13.6523 30.5753 13.4931C30.306 13.3533 29.9425 13.3124 29.6608 13.3901ZM48.8488 13.6011C48.7545 13.6401 48.7434 13.703 48.7434 14.1977C48.7434 14.6619 48.7446 14.6734 48.8002 14.7271C48.8601 14.7848 49.1037 14.801 52.3444 14.9621L52.9523 14.9923L53.0102 14.9231C53.124 14.7872 53.0646 14.6523 52.8654 14.5945C52.6834 14.5416 48.9314 13.5755 48.9155 13.5774C48.9082 13.5783 48.8782 13.5889 48.8488 13.6011ZM45.1361 14.3554C44.8574 14.4121 44.4789 14.7195 44.2448 15.0794C43.8918 15.6219 43.6206 16.4745 43.5009 17.4186C43.4468 17.8445 43.427 18.8805 43.4643 19.3341C43.5547 20.4347 43.8272 21.3914 44.236 22.0431C44.5497 22.5432 45.0806 22.9012 45.1604 22.6665C45.1789 22.6119 45.1646 22.5759 45.0653 22.4279C44.3226 21.3204 44.0602 19.0778 44.4585 17.2428C44.74 15.9462 45.3151 15.0828 45.8971 15.0828C45.9803 15.0828 46.0839 15.0955 46.1273 15.111C46.2441 15.1529 46.3245 15.1087 46.3245 15.0025C46.3245 14.934 46.2944 14.8909 46.1351 14.7314C45.8057 14.4015 45.4912 14.2831 45.1361 14.3554ZM49.4106 16.2139C49.2897 16.2626 49.2773 16.3231 49.2855 16.8257C49.2927 17.2623 49.2964 17.2951 49.3452 17.3452C49.3971 17.3985 49.4028 17.3987 51.169 17.4124L52.9408 17.4262L53.0045 17.3607C53.0737 17.2895 53.0833 17.2291 53.0405 17.1326C53.004 17.0503 52.9726 17.0392 52.3596 16.8932C52.0706 16.8244 51.323 16.6433 50.6981 16.4906C50.0732 16.3381 49.5399 16.2085 49.5131 16.2028C49.4862 16.197 49.4401 16.202 49.4106 16.2139ZM55.4138 16.8158V16.9163H74.8018H94.1899V16.8158V16.7153H74.8018H55.4138V16.8158ZM75.2925 18.0241C74.7986 18.0981 74.4398 18.2716 74.1835 18.5605C73.949 18.8248 73.8611 19.0867 73.8629 19.5158C73.8647 19.9581 73.9815 20.2575 74.2538 20.5176C74.5075 20.7599 74.7746 20.8721 75.484 21.0344C76.0668 21.1677 76.2105 21.243 76.1733 21.3953C76.1454 21.5097 76.0521 21.5501 75.8159 21.5502C75.5736 21.5502 75.4914 21.5119 75.4347 21.3724L75.3998 21.2865H74.5694H73.7389V21.3435C73.7389 21.4411 73.8346 21.7608 73.9092 21.9127C73.9483 21.9925 74.0364 22.1207 74.1047 22.1976C74.4495 22.5854 74.9516 22.7515 75.7792 22.7515C76.5846 22.7515 77.1207 22.5824 77.4774 22.2157C77.9047 21.7765 77.9902 20.9573 77.6618 20.4487C77.4166 20.069 77.0372 19.8766 76.1956 19.7052C75.6013 19.5841 75.4786 19.508 75.5593 19.3106C75.5969 19.2186 75.6344 19.2018 75.8023 19.2018C75.941 19.2018 76.0435 19.2593 76.0725 19.3532C76.0874 19.4013 76.113 19.4028 76.9296 19.4028H77.7714L77.7571 19.3337C77.6513 18.8215 77.3842 18.4512 76.9654 18.2362C76.7575 18.1294 76.6102 18.0816 76.344 18.0346C76.1086 17.993 75.5378 17.9873 75.2925 18.0241ZM91.6121 18.0132C91.123 18.0759 90.6783 18.2808 90.4401 18.5533C90.007 19.0484 89.999 19.9263 90.423 20.4354C90.5445 20.5815 90.826 20.7642 91.0676 20.854C91.1789 20.8954 91.4295 20.9647 91.6243 21.0079C92.3116 21.1604 92.4405 21.2183 92.4259 21.368C92.4128 21.502 92.3172 21.5502 92.0641 21.5502C91.8171 21.5502 91.7274 21.5062 91.6882 21.3656L91.6661 21.2865H90.8267C90.1414 21.2865 89.9873 21.2927 89.9873 21.3202C89.9873 21.3387 90.0089 21.441 90.0355 21.5475C90.1406 21.9701 90.3951 22.3147 90.7389 22.5C91.2409 22.7705 92.2242 22.8404 92.9316 22.656C93.5565 22.493 93.9674 22.0973 94.0796 21.5502C94.1884 21.0201 94.0665 20.5514 93.7376 20.2352C93.467 19.975 93.1439 19.8452 92.3818 19.6906C91.9016 19.5932 91.7954 19.5384 91.7954 19.3882C91.7954 19.2718 91.8878 19.2018 92.0414 19.2018C92.2032 19.2018 92.2833 19.2386 92.316 19.3277L92.3436 19.4028H93.1812C93.8488 19.4028 94.0188 19.3962 94.0188 19.3704C94.0188 19.186 93.8286 18.7669 93.6545 18.5676C93.4188 18.2978 92.9859 18.0855 92.5449 18.0232C92.3672 17.9981 91.7788 17.9918 91.6121 18.0132ZM55.316 18.7874V19.4781H55.9024H56.4888V21.073V22.6679H57.3196H58.1503V21.073V19.4781H58.7367H59.3231V18.7874V18.0967H57.3196H55.316V18.7874ZM59.6956 20.376L59.7019 22.6553L60.5383 22.6619L61.3748 22.6685L61.3813 21.9838L61.3878 21.2991L61.6757 21.8985C61.8341 22.2283 61.9793 22.5362 61.9982 22.583L62.0328 22.6679H62.9285C63.6874 22.6679 63.8221 22.6625 63.811 22.6326C63.8037 22.6132 63.6101 22.2498 63.3806 21.8249C63.1511 21.4 62.9662 21.0512 62.9697 21.0497C62.9731 21.0481 63.0396 21.003 63.1175 20.9494C63.5055 20.6822 63.6972 20.2782 63.6963 19.7298C63.6951 18.9499 63.3679 18.4541 62.7032 18.2249C62.373 18.1111 62.1728 18.0969 60.8929 18.0968L59.6894 18.0967L59.6956 20.376ZM65.5402 18.1838C65.5208 18.2317 65.5048 18.2766 65.5048 18.2836C65.5048 18.2906 65.3846 18.6441 65.2377 19.0693C65.0908 19.4945 64.7619 20.447 64.5069 21.186C64.2519 21.9251 64.0316 22.5608 64.0172 22.5988L63.9912 22.6679H64.7715H65.5518L65.5784 22.5612C65.593 22.5025 65.6291 22.364 65.6587 22.2535L65.7125 22.0525H66.2867H66.8609L66.8902 22.153C66.9063 22.2083 66.9433 22.3467 66.9723 22.4607L67.0251 22.6679H67.9291C68.6421 22.6679 68.8306 22.6613 68.8214 22.6365C68.8002 22.5792 67.783 19.6266 67.3981 18.5049L67.258 18.0967H66.4168H65.5756L65.5402 18.1838ZM69.0966 20.3823V22.6679H69.8659H70.6353L70.6417 21.7218L70.6481 20.7757L71.3524 21.7218L72.0567 22.6679H72.739H73.4213V20.3823V18.0967H72.6397H71.8581L71.8517 19.0273L71.8453 19.9579L71.1536 19.0273L70.4618 18.0967H69.7792H69.0966V20.3823ZM78.1859 20.3823V22.6679H79.0166H79.8473V21.927V21.186H80.5804H81.3134V20.5958V20.0056H80.5804H79.8473V19.6791V19.3525H80.6781H81.5088V18.7246V18.0967H79.8473H78.1859V20.3823ZM81.8509 20.3823V22.6679H83.5979H85.3449V22.04V21.4121H84.4409H83.5368V21.1487V20.8853L84.3492 20.8787L85.1616 20.8721V20.3446V19.8172L84.3492 19.8106L83.5368 19.804V19.5783V19.3525H84.4409H85.3449V18.7246V18.0967H83.5979H81.8509V20.3823ZM85.7603 20.3807V22.6679H86.6028H87.4454L87.4519 21.9835L87.4584 21.2991L87.5351 21.4623C87.5773 21.5521 87.7224 21.8601 87.8575 22.1467L88.1032 22.6679H88.9984C89.4908 22.6679 89.89 22.6587 89.8855 22.6474C89.881 22.6361 89.6857 22.2723 89.4515 21.839C89.0649 21.1235 89.0298 21.0486 89.07 21.0243C89.5577 20.7301 89.7916 20.2558 89.7583 19.6288C89.7208 18.9218 89.4433 18.496 88.8713 18.2677C88.4925 18.1165 88.477 18.1151 87.0614 18.1039L85.7603 18.0936V20.3807ZM49.3508 18.7475C49.2945 18.7943 49.293 18.8065 49.2855 19.2611C49.2776 19.7499 49.2857 19.7989 49.3864 19.8668C49.4349 19.8994 49.5642 19.8981 50.4912 19.8555C51.0686 19.8291 51.8489 19.794 52.2252 19.7776C52.957 19.7458 53.0299 19.7316 53.0583 19.6153C53.0799 19.5268 53.0268 19.4118 52.95 19.3809C52.8901 19.3567 52.4875 19.2765 50.2938 18.8513C49.8632 18.7678 49.4878 18.6995 49.4597 18.6995C49.4315 18.6995 49.3826 18.7211 49.3508 18.7475ZM61.3756 19.7418V20.1312H61.5552C61.7013 20.1312 61.7503 20.1205 61.8179 20.0741C61.9379 19.9917 61.9912 19.8714 61.9795 19.7094C61.9621 19.4668 61.8217 19.3526 61.5405 19.3526L61.3756 19.3525V19.7418ZM87.4462 19.7418V20.1312L87.6111 20.1311C87.8995 20.1311 88.0431 20.0017 88.0431 19.742C88.0431 19.4855 87.8943 19.3525 87.6074 19.3525H87.4462V19.7418ZM10.9446 19.5706C9.57066 19.5942 7.31691 19.731 6.25339 19.8553C6.13916 19.8687 6.03825 19.8797 6.02911 19.8798C5.99632 19.8802 5.93575 19.9598 5.93575 20.0026C5.93575 20.1085 5.9856 20.129 6.3389 20.1677C7.96213 20.3457 10.371 20.4574 12.5817 20.4572C14.5096 20.4569 16.7063 20.3643 18.2533 20.2181C19.0343 20.1442 19.1033 20.1333 19.1373 20.0779C19.1703 20.0241 19.1394 19.9114 19.0871 19.8951C19.0026 19.8688 18.0951 19.775 17.3707 19.7178C15.79 19.5929 13.1571 19.5326 10.9446 19.5706ZM66.2778 19.7293C66.263 19.767 66.0424 20.7417 66.0424 20.7694C66.0424 20.7775 66.1523 20.7842 66.2867 20.7842C66.4211 20.7842 66.5307 20.7814 66.5303 20.7779C66.5161 20.6505 66.2881 19.7033 66.2778 19.7293Z" fill="#A70C1E"/>
</g>
<defs>
<clipPath id="clip0_248_1248">
<rect width="47" height="26" fill="white" transform="translate(0 2.3125)"/>
</clipPath>
</defs>
</svg>
