<svg width="24" height="25" viewBox="0 0 24 25" fill="none" xmlns="http://www.w3.org/2000/svg">
<g clip-path="url(#clip0_31_1175)">
<rect x="2.53809" y="5.0813" width="18.2421" height="16.802" fill="white"/>
<path d="M16.8177 9.15874L10.7318 14.1333L10.4454 14.3678C10.3825 14.4177 10.3414 14.4901 10.3309 14.5697L10.2668 15.0987L10.0909 16.5851C10.0925 16.6032 10.0869 16.6212 10.0752 16.6351C10.0636 16.6491 10.0469 16.6578 10.0288 16.6594C10.0107 16.6611 9.99275 16.6554 9.97882 16.6438C9.96488 16.6322 9.95613 16.6155 9.95451 16.5974L9.45951 15.111L8.94814 13.5906C8.92633 13.5224 8.92912 13.4488 8.95603 13.3825C8.98295 13.3162 9.03227 13.2615 9.09542 13.2278L15.4281 9.59783L16.62 8.91601C16.7931 8.81511 16.9704 9.03329 16.8177 9.15874Z" fill="#64B8F7"/>
<path d="M20.7273 0.656494H3.27273C2.40475 0.656494 1.57232 1.0013 0.95856 1.61505C0.344804 2.22881 0 3.06124 0 3.92922L0 21.3838C0 22.2517 0.344804 23.0842 0.95856 23.6979C1.57232 24.3117 2.40475 24.6565 3.27273 24.6565H20.7273C21.5953 24.6565 22.4277 24.3117 23.0414 23.6979C23.6552 23.0842 24 22.2517 24 21.3838V3.92922C24 3.06124 23.6552 2.22881 23.0414 1.61505C22.4277 1.0013 21.5953 0.656494 20.7273 0.656494ZM19.485 7.60286L17.1423 17.9542C17.0318 18.4397 16.4155 18.6592 15.9832 18.3633L12.4459 15.9633L10.6445 17.6665C10.5711 17.7354 10.4819 17.7854 10.3848 17.812C10.2877 17.8387 10.1855 17.8413 10.0871 17.8195C9.9888 17.7977 9.89725 17.7523 9.82044 17.6871C9.74363 17.622 9.68388 17.5391 9.64636 17.4456L8.99591 15.5365L8.34546 13.6274L4.85864 12.6729C4.76115 12.6516 4.67342 12.5987 4.60909 12.5224C4.54477 12.4461 4.50745 12.3507 4.50294 12.251C4.49843 12.1513 4.52698 12.0529 4.58415 11.9712C4.64133 11.8894 4.72392 11.8288 4.81909 11.7988L18.2891 6.94558L18.5373 6.85695C19.0595 6.67422 19.5995 7.09695 19.485 7.60286Z" fill="#64B8F7"/>
</g>
<defs>
<clipPath id="clip0_31_1175">
<rect width="24" height="24" fill="white" transform="translate(0 0.656494)"/>
</clipPath>
</defs>
</svg>
