<svg width="208" height="44" viewBox="0 0 208 44" fill="none" xmlns="http://www.w3.org/2000/svg">
<path d="M168.006 26.6563C167.602 26.6563 167.275 26.9841 167.275 27.3878C167.275 27.7914 167.602 28.1193 168.006 28.1193C168.409 28.1193 168.737 27.7914 168.737 27.3878C168.737 26.9841 168.409 26.6563 168.006 26.6563ZM168.006 28.0033C167.666 28.0033 167.391 27.7264 167.391 27.3878C167.391 27.0475 167.667 26.7723 168.006 26.7723C168.346 26.7723 168.623 27.0491 168.623 27.3878C168.623 27.7264 168.346 28.0033 168.006 28.0033ZM168.244 27.2625C168.244 27.1295 168.15 27.0506 168.01 27.0506H167.777V27.7172H167.891V27.4759H168.017L168.137 27.7172H168.261L168.128 27.4512C168.199 27.4187 168.244 27.3537 168.244 27.2625ZM168.006 27.3723H167.893V27.1512H168.006C168.083 27.1512 168.129 27.1898 168.129 27.261C168.129 27.3337 168.082 27.3723 168.006 27.3723ZM79.9043 19.2535V17.4844H77.193V28.0094H79.9043V21.6985C79.9043 20.5556 80.6371 19.9943 81.7794 19.9943H83.2634V17.4844H81.9958C81.0034 17.4844 80.1408 18.0024 79.9043 19.2535ZM85.8032 13.3214C84.8757 13.3214 84.1646 14.0544 84.1646 14.9823C84.1646 15.8885 84.8757 16.6215 85.8032 16.6215C86.7307 16.6215 87.4418 15.8885 87.4418 14.9823C87.4418 14.0544 86.7307 13.3214 85.8032 13.3214ZM84.4506 28.0095H87.1558V17.4844H84.4506V28.0095ZM100.042 22.7469C100.042 25.7516 97.6072 28.1873 94.6036 28.1873C93.3916 28.1873 92.2926 27.7899 91.4114 27.1187V31.0993H88.7062V17.4844H91.4114V18.3751C92.2926 17.704 93.3916 17.3066 94.6036 17.3066C97.6072 17.3066 100.042 19.7422 100.042 22.7469ZM97.3197 22.7469C97.3197 21.1154 95.9964 19.7917 94.3656 19.7917C92.7347 19.7917 91.4115 21.1154 91.4115 22.7469C91.4115 24.3784 92.7347 25.7022 94.3656 25.7022C95.9964 25.7022 97.3197 24.38 97.3197 22.7469ZM147.06 21.8237L145.482 21.3907C144.443 21.1201 144.039 20.8015 144.039 20.2525C144.039 19.7174 144.608 19.3432 145.421 19.3432C146.196 19.3432 146.803 19.8504 146.803 20.4999V20.5602H149.297V20.4999C149.297 18.5901 147.74 17.3065 145.421 17.3065C143.126 17.3065 141.458 18.5885 141.458 20.3561C141.458 21.7309 142.368 22.767 143.957 23.1969L145.469 23.6098C146.618 23.9283 147.044 24.281 147.044 24.9135C147.044 25.58 146.428 26.0284 145.509 26.0284C144.552 26.0284 143.908 25.4222 143.908 24.5222V24.4619H141.261V24.5222C141.261 26.681 142.999 28.1903 145.488 28.1903C147.885 28.1903 149.626 26.7166 149.626 24.6877C149.626 23.6918 149.181 22.3897 147.06 21.8237ZM109.638 17.4844H112.344V28.0094H109.638V27.1187C108.757 27.7898 107.658 28.1873 106.446 28.1873C103.443 28.1873 101.008 25.7516 101.008 22.7469C101.008 19.7421 103.443 17.3065 106.446 17.3065C107.658 17.3065 108.757 17.7039 109.638 18.3751V17.4844ZM109.638 22.7469C109.638 21.1139 108.315 19.7917 106.684 19.7917C105.053 19.7917 103.73 21.1154 103.73 22.7469C103.73 24.3784 105.053 25.7022 106.684 25.7022C108.317 25.7022 109.638 24.38 109.638 22.7469ZM122.112 13.7389H124.817V28.011H122.112V27.1202C121.231 27.7914 120.131 28.1888 118.92 28.1888C115.916 28.1888 113.481 25.7532 113.481 22.7484C113.481 19.7437 115.916 17.3081 118.92 17.3081C120.131 17.3081 121.231 17.7055 122.112 18.3766V13.7389ZM122.112 22.7469C122.112 21.1154 120.788 19.7917 119.158 19.7917C117.527 19.7917 116.203 21.1154 116.203 22.7469C116.203 24.3784 117.525 25.7022 119.158 25.7022C120.788 25.7022 122.112 24.38 122.112 22.7469ZM137.377 28.0095H140.082V17.4844H137.377V28.0095ZM138.729 13.3214C137.802 13.3214 137.091 14.0544 137.091 14.9823C137.091 15.8885 137.802 16.6215 138.729 16.6215C139.657 16.6215 140.368 15.8885 140.368 14.9823C140.368 14.0544 139.657 13.3214 138.729 13.3214ZM161.319 22.7469C161.319 25.7516 158.884 28.1873 155.88 28.1873C152.877 28.1873 150.442 25.7517 150.442 22.7469C150.442 19.7422 152.877 17.3066 155.88 17.3066C158.884 17.3066 161.319 19.7422 161.319 22.7469ZM158.834 22.7469C158.834 21.1154 157.511 19.7917 155.88 19.7917C154.249 19.7917 152.926 21.1154 152.926 22.7469C152.926 24.3784 154.248 25.7022 155.88 25.7022C157.511 25.7022 158.834 24.38 158.834 22.7469ZM78.5192 13.7389H68.1421V16.1529H71.9835V28.0094H74.6794V16.1529H78.5208V13.7389H78.5192ZM130.999 25.1269L128.592 17.4844H125.751L129.36 28.0095H132.616L136.247 17.4844H133.405L130.999 25.1269ZM165.282 19.2535V17.4844H162.571V28.0094H165.282V21.6985C165.282 20.5556 166.015 19.9943 167.157 19.9943H168.641V17.4844H167.374C166.381 17.4844 165.52 18.0024 165.282 19.2535Z" fill="black"/>
<path d="M52.4953 35.8406C60.1363 35.8406 66.3305 29.6439 66.3305 22C66.3305 14.3561 60.1363 8.15942 52.4953 8.15942C44.8544 8.15942 38.6602 14.3561 38.6602 22C38.6602 29.6439 44.8544 35.8406 52.4953 35.8406Z" fill="#34E0A1"/>
<path d="M61.0403 19.3L62.7098 17.4829H59.0075C57.1541 16.2163 54.9157 15.4787 52.4949 15.4787C50.0772 15.4787 47.8451 16.2179 45.9947 17.4829H42.2832L43.9527 19.3C42.9294 20.234 42.2879 21.5794 42.2879 23.0733C42.2879 25.8924 44.5726 28.178 47.3907 28.178C48.7294 28.178 49.949 27.6615 50.8595 26.8172L52.495 28.5987L54.1305 26.8187C55.041 27.6631 56.2591 28.178 57.5978 28.178C60.4158 28.178 62.7036 25.8924 62.7036 23.0733C62.7051 21.5779 62.0637 20.2325 61.0403 19.3ZM47.3922 26.528C45.4846 26.528 43.9388 24.9816 43.9388 23.0733C43.9388 21.1649 45.4846 19.6185 47.3922 19.6185C49.2997 19.6185 50.8455 21.1649 50.8455 23.0733C50.8455 24.9816 49.2997 26.528 47.3922 26.528ZM52.4965 22.9727C52.4965 20.6995 50.844 18.7479 48.6628 17.9143C49.8423 17.421 51.1362 17.1473 52.4949 17.1473C53.8537 17.1473 55.1491 17.421 56.3286 17.9143C54.149 18.7494 52.4965 20.6995 52.4965 22.9727ZM57.5993 26.528C55.6917 26.528 54.1459 24.9816 54.1459 23.0733C54.1459 21.1649 55.6917 19.6185 57.5993 19.6185C59.5069 19.6185 61.0527 21.1649 61.0527 23.0733C61.0527 24.9816 59.5068 26.528 57.5993 26.528ZM57.5993 21.2608C56.5991 21.2608 55.7891 22.0712 55.7891 23.0717C55.7891 24.0722 56.5991 24.8826 57.5993 24.8826C58.5994 24.8826 59.4095 24.0722 59.4095 23.0717C59.4094 22.0727 58.5994 21.2608 57.5993 21.2608ZM49.2023 23.0733C49.2023 24.0738 48.3923 24.8841 47.3922 24.8841C46.392 24.8841 45.582 24.0738 45.582 23.0733C45.582 22.0727 46.392 21.2624 47.3922 21.2624C48.3923 21.2608 49.2023 22.0727 49.2023 23.0733Z" fill="black"/>
</svg>
