<svg width="207" height="44" viewBox="0 0 207 44" fill="none" xmlns="http://www.w3.org/2000/svg">
<path d="M75.2337 14.4288H87.3405V16.6771H82.5801V29.316H79.9624V16.6771H75.2231V14.4288H75.2337ZM86.8233 18.5367H89.061V20.6169H89.1032C89.1771 20.3227 89.3143 20.0391 89.5148 19.7659C89.7154 19.4928 89.9581 19.2301 90.2431 19.0095C90.5281 18.7784 90.8448 18.5998 91.1931 18.4527C91.5414 18.3161 91.9003 18.2425 92.2592 18.2425C92.5336 18.2425 92.7342 18.2531 92.8397 18.2636C92.9453 18.2741 93.0508 18.2951 93.1669 18.3056V20.5959C92.998 20.5644 92.8292 20.5434 92.6497 20.5224C92.4703 20.5014 92.3014 20.4908 92.1325 20.4908C91.7314 20.4908 91.3514 20.5749 90.9926 20.7325C90.6337 20.8901 90.3276 21.1317 90.0637 21.4364C89.7998 21.7516 89.5887 22.1298 89.4304 22.5921C89.2721 23.0543 89.1982 23.5796 89.1982 24.1785V29.3055H86.8127V18.5367H86.8233ZM104.134 29.316H101.79V27.8136H101.748C101.453 28.3599 101.02 28.7907 100.439 29.1163C99.8589 29.442 99.2678 29.6101 98.6662 29.6101C97.2412 29.6101 96.2068 29.2634 95.5735 28.5595C94.9402 27.8556 94.6235 26.7945 94.6235 25.3762V18.5367H97.009V25.145C97.009 26.0906 97.1884 26.763 97.5579 27.1517C97.9167 27.5404 98.4339 27.74 99.0884 27.74C99.595 27.74 100.007 27.6665 100.344 27.5089C100.682 27.3513 100.957 27.1517 101.157 26.8891C101.368 26.6369 101.516 26.3217 101.611 25.9645C101.706 25.6073 101.748 25.2186 101.748 24.7983V18.5472H104.134V29.316ZM108.197 25.8595C108.271 26.5529 108.535 27.0361 108.989 27.3198C109.454 27.593 110.002 27.74 110.646 27.74C110.868 27.74 111.121 27.719 111.406 27.6875C111.691 27.656 111.966 27.5825 112.208 27.4879C112.462 27.3933 112.662 27.2463 112.831 27.0572C112.99 26.868 113.063 26.6264 113.053 26.3217C113.042 26.017 112.926 25.7649 112.715 25.5758C112.504 25.3762 112.24 25.2291 111.913 25.103C111.586 24.9875 111.216 24.8824 110.794 24.7983C110.372 24.7143 109.95 24.6197 109.517 24.5252C109.074 24.4306 108.641 24.3046 108.229 24.168C107.817 24.0314 107.448 23.8423 107.121 23.6006C106.794 23.3695 106.53 23.0648 106.34 22.6971C106.139 22.3294 106.044 21.8777 106.044 21.3313C106.044 20.743 106.192 20.2597 106.477 19.8605C106.762 19.4613 107.131 19.1461 107.564 18.9044C108.007 18.6628 108.493 18.4947 109.031 18.3896C109.57 18.2951 110.087 18.2425 110.572 18.2425C111.132 18.2425 111.67 18.3056 112.177 18.4211C112.683 18.5367 113.148 18.7258 113.559 18.999C113.971 19.2616 114.309 19.6083 114.583 20.0286C114.858 20.4488 115.027 20.9636 115.101 21.5625H112.61C112.493 20.9951 112.24 20.6064 111.828 20.4173C111.417 20.2177 110.942 20.1231 110.414 20.1231C110.245 20.1231 110.045 20.1336 109.812 20.1652C109.58 20.1967 109.369 20.2492 109.158 20.3227C108.957 20.3963 108.789 20.5119 108.641 20.6589C108.504 20.806 108.43 20.9951 108.43 21.2368C108.43 21.5309 108.535 21.7621 108.736 21.9407C108.936 22.1193 109.2 22.2664 109.527 22.3924C109.855 22.508 110.224 22.6131 110.646 22.6971C111.068 22.7812 111.501 22.8757 111.945 22.9703C112.377 23.0648 112.8 23.1909 113.222 23.3275C113.644 23.4641 114.013 23.6532 114.341 23.8948C114.668 24.1365 114.932 24.4306 115.132 24.7878C115.333 25.145 115.438 25.5968 115.438 26.1221C115.438 26.763 115.291 27.2988 114.995 27.7506C114.699 28.1918 114.319 28.5595 113.855 28.8327C113.391 29.1058 112.863 29.316 112.293 29.442C111.723 29.5681 111.153 29.6311 110.593 29.6311C109.907 29.6311 109.274 29.5576 108.694 29.4C108.113 29.2424 107.606 29.0113 107.184 28.7066C106.762 28.3914 106.424 28.0027 106.181 27.5404C105.939 27.0782 105.812 26.5213 105.791 25.8805H108.197V25.8595ZM116.072 18.5367H117.877V15.3008H120.262V18.5367H122.415V20.3122H120.262V26.0696C120.262 26.3217 120.273 26.5318 120.294 26.721C120.315 26.8996 120.368 27.0572 120.441 27.1832C120.515 27.3093 120.631 27.4039 120.79 27.4669C120.948 27.5299 121.149 27.5614 121.423 27.5614C121.592 27.5614 121.761 27.5614 121.93 27.5509C122.099 27.5404 122.267 27.5194 122.436 27.4774V29.316C122.172 29.3475 121.909 29.3685 121.666 29.4C121.413 29.4315 121.159 29.442 120.895 29.442C120.262 29.442 119.755 29.379 119.375 29.2634C118.995 29.1479 118.689 28.9693 118.478 28.7381C118.257 28.507 118.119 28.2233 118.035 27.8766C117.961 27.5299 117.908 27.1307 117.898 26.6894V20.3333H116.093V18.5367H116.072ZM124.104 18.5367H126.363V19.9971H126.405C126.743 19.3667 127.207 18.9254 127.809 18.6523C128.411 18.3791 129.054 18.2425 129.762 18.2425C130.617 18.2425 131.355 18.3896 131.989 18.6943C132.622 18.9885 133.15 19.3982 133.572 19.9235C133.994 20.4488 134.3 21.0582 134.511 21.7516C134.723 22.445 134.828 23.1909 134.828 23.9789C134.828 24.7038 134.733 25.4077 134.543 26.0801C134.353 26.763 134.068 27.3618 133.688 27.8871C133.308 28.4124 132.823 28.8222 132.232 29.1374C131.64 29.4525 130.954 29.6101 130.152 29.6101C129.804 29.6101 129.456 29.5786 129.107 29.5156C128.759 29.4525 128.421 29.3475 128.104 29.2109C127.788 29.0743 127.482 28.8957 127.218 28.6751C126.943 28.4545 126.722 28.2023 126.532 27.9187H126.49V33.2978H124.104V18.5367ZM132.443 23.9368C132.443 23.4536 132.379 22.9808 132.253 22.5185C132.126 22.0563 131.936 21.657 131.683 21.2998C131.429 20.9426 131.113 20.6589 130.743 20.4488C130.363 20.2387 129.931 20.1231 129.445 20.1231C128.442 20.1231 127.682 20.4698 127.176 21.1632C126.669 21.8566 126.416 22.7812 126.416 23.9368C126.416 24.4832 126.479 24.9875 126.616 25.4497C126.753 25.912 126.943 26.3112 127.218 26.6474C127.482 26.9836 127.798 27.2463 128.168 27.4354C128.537 27.635 128.97 27.7295 129.456 27.7295C130.004 27.7295 130.458 27.614 130.838 27.3933C131.218 27.1727 131.524 26.8785 131.767 26.5318C132.01 26.1746 132.189 25.7754 132.295 25.3236C132.39 24.8719 132.443 24.4096 132.443 23.9368ZM136.654 14.4288H139.04V16.6771H136.654V14.4288ZM136.654 18.5367H139.04V29.316H136.654V18.5367ZM141.172 14.4288H143.557V29.316H141.172V14.4288ZM150.872 29.6101C150.006 29.6101 149.236 29.463 148.56 29.1794C147.885 28.8957 147.315 28.4965 146.84 28.0027C146.375 27.4984 146.017 26.8996 145.774 26.2062C145.531 25.5128 145.404 24.7458 145.404 23.9158C145.404 23.0964 145.531 22.3399 145.774 21.6465C146.017 20.9531 146.375 20.3543 146.84 19.85C147.304 19.3457 147.885 18.957 148.56 18.6733C149.236 18.3896 150.006 18.2425 150.872 18.2425C151.737 18.2425 152.508 18.3896 153.184 18.6733C153.859 18.957 154.429 19.3562 154.904 19.85C155.368 20.3543 155.727 20.9531 155.97 21.6465C156.213 22.3399 156.34 23.0964 156.34 23.9158C156.34 24.7458 156.213 25.5128 155.97 26.2062C155.727 26.8996 155.368 27.4984 154.904 28.0027C154.44 28.507 153.859 28.8957 153.184 29.1794C152.508 29.463 151.737 29.6101 150.872 29.6101ZM150.872 27.7295C151.4 27.7295 151.864 27.614 152.255 27.3933C152.645 27.1727 152.962 26.8785 153.215 26.5213C153.469 26.1641 153.648 25.7544 153.775 25.3026C153.891 24.8509 153.954 24.3886 153.954 23.9158C153.954 23.4536 153.891 23.0018 153.775 22.5395C153.659 22.0773 153.469 21.678 153.215 21.3208C152.962 20.9636 152.645 20.68 152.255 20.4593C151.864 20.2387 151.4 20.1231 150.872 20.1231C150.344 20.1231 149.88 20.2387 149.489 20.4593C149.099 20.68 148.782 20.9741 148.529 21.3208C148.275 21.678 148.096 22.0773 147.969 22.5395C147.853 23.0018 147.79 23.4536 147.79 23.9158C147.79 24.3886 147.853 24.8509 147.969 25.3026C148.085 25.7544 148.275 26.1641 148.529 26.5213C148.782 26.8785 149.099 27.1727 149.489 27.3933C149.88 27.6245 150.344 27.7295 150.872 27.7295ZM157.036 18.5367H158.841V15.3008H161.227V18.5367H163.38V20.3122H161.227V26.0696C161.227 26.3217 161.237 26.5318 161.258 26.721C161.279 26.8996 161.332 27.0572 161.406 27.1832C161.48 27.3093 161.596 27.4039 161.754 27.4669C161.913 27.5299 162.113 27.5614 162.388 27.5614C162.557 27.5614 162.725 27.5614 162.894 27.5509C163.063 27.5404 163.232 27.5194 163.401 27.4774V29.316C163.137 29.3475 162.873 29.3685 162.63 29.4C162.377 29.4315 162.124 29.442 161.86 29.442C161.227 29.442 160.72 29.379 160.34 29.2634C159.96 29.1479 159.654 28.9693 159.443 28.7381C159.221 28.507 159.084 28.2233 158.999 27.8766C158.926 27.5299 158.873 27.1307 158.862 26.6894V20.3333H157.057V18.5367H157.036Z" fill="#191919"/>
<path d="M72.4472 17.6155H61.512L58.1344 7.25647L54.7462 17.6155L43.811 17.605L52.6668 24.0137L49.2786 34.3622L58.1344 27.964L66.9796 34.3622L63.602 24.0137L72.4472 17.6155Z" fill="#00B67A"/>
<path d="M64.3623 26.3565L63.6023 24.0137L58.1348 27.964L64.3623 26.3565Z" fill="#005128"/>
</svg>
