<svg width="108" height="27" viewBox="0 0 108 27" fill="none" xmlns="http://www.w3.org/2000/svg">
<g clip-path="url(#clip0_192_1049)">
<path fill-rule="evenodd" clip-rule="evenodd" d="M56.5148 1.89C56.5073 4.89852 56.2704 5.4 54.8577 5.4C53.7986 5.4 53.6399 5.51736 53.6399 6.3C53.6399 7.08444 53.7979 7.2 54.8693 7.2H56.099L56.2193 15.03C56.3283 22.1051 56.4101 22.9813 57.0681 24.12C58.4991 26.5961 62.4469 27.6919 65.4363 26.4427C66.7658 25.8872 68.3999 24.5909 68.3999 24.0916C68.3999 23.9468 67.4513 23.9144 66.2921 24.0196C63.0351 24.3148 62.9999 24.2172 62.9999 14.8597V7.2H65.5199C67.9679 7.2 68.0399 7.17444 68.0399 6.3C68.0399 5.42556 67.9679 5.4 65.5199 5.4H62.9999V2.7V0H59.7599H56.5199L56.5148 1.89ZM15.7113 5.07672C13.4207 5.70384 12.2215 8.11728 13.1255 10.2809C14.4823 13.5288 19.0179 13.4791 20.3877 10.201C21.6067 7.28352 18.8167 4.2264 15.7113 5.07672ZM39.9599 5.20524C38.4749 5.4612 36.5856 5.87412 35.7615 6.12288C34.2927 6.56604 34.2607 6.61032 34.1415 8.36208C34.0746 9.34488 34.1009 10.1959 34.1999 10.2535C34.2989 10.3108 35.8335 9.47808 37.6105 8.4024C40.4394 6.69024 41.0427 6.4602 42.4619 6.55344C44.5193 6.6888 44.9873 7.5078 44.9945 10.9847L44.9999 13.5097L41.7156 14.2942C37.4697 15.3086 34.8068 16.6151 33.8586 18.1498C32.955 19.6121 32.8823 22.2502 33.698 23.9699C35.25 27.2401 41.0093 27.9187 43.9443 25.1773L45.0143 24.1776L45.5355 25.425L46.0565 26.672L48.6783 26.5658L51.2999 26.46V17.46C51.2999 8.68824 51.2793 8.4312 50.4852 7.31808C48.9926 5.2254 44.7655 4.37688 39.9599 5.20524ZM77.2123 5.06304C73.7977 5.51304 70.9728 7.4502 69.2833 10.5001C68.3041 12.2677 68.2199 12.7058 68.2199 16.02C68.2199 19.346 68.3019 19.7683 69.2999 21.5723C71.5805 25.6946 76.4264 27.698 81.5561 26.6393C84.2967 26.0734 85.8861 25.2468 87.5522 23.5206C89.5938 21.4049 90.4499 19.1214 90.4355 15.8296C90.42 12.2998 89.4696 9.97272 87.1609 7.81344C84.5991 5.41692 81.3476 4.518 77.2123 5.06304ZM103.966 5.14368C103.103 5.35068 102.119 6.021 101.176 7.04376L99.7199 8.6238V7.01208V5.4H96.4799H93.2399V16.02V26.64H96.4734H99.7069L99.8034 18.09L99.8999 9.54L100.87 9.42804C101.404 9.36648 103.021 9.8118 104.463 10.418C105.906 11.0239 107.292 11.52 107.543 11.52C108.177 11.52 108.183 5.99292 107.55 5.49252C106.843 4.93344 105.419 4.79484 103.966 5.14368ZM0.359863 5.68512C0.359863 5.85648 2.42914 10.6009 4.95814 16.2281L9.55678 26.46H10.9737C12.3731 26.46 12.4044 26.4298 13.4253 24.1124L14.46 21.7645L10.8452 13.6724L7.23082 5.58L3.79534 5.47704C1.9057 5.42016 0.359863 5.51412 0.359863 5.68512ZM23.3999 15.84V26.28H26.6399H29.8799V15.84V5.4H26.6399H23.3999V15.84ZM76.9409 7.11072C75.8893 8.27244 75.5185 9.87228 75.3345 14.04C75.125 18.7913 75.6333 22.7894 76.6147 24.1085C77.5766 25.4012 80.5938 25.6057 81.6695 24.4512C82.7023 23.3428 83.1599 20.7637 83.1599 16.0513C83.1599 8.56584 82.2955 6.48 79.193 6.48C78.0482 6.48 77.3293 6.68124 76.9409 7.11072ZM42.7686 15.5484C42.0363 15.7432 41.024 16.2857 40.5186 16.754C39.7125 17.501 39.5999 17.897 39.5999 19.9793C39.5999 22.0446 39.7194 22.4723 40.5197 23.2726C41.3023 24.0552 41.6385 24.1556 42.7697 23.944C44.9131 23.5436 44.9999 23.3525 44.9999 19.0361C44.9999 14.7773 45.0971 14.9292 42.7686 15.5484Z" fill="#186B6D"/>
</g>
<defs>
<clipPath id="clip0_192_1049">
<rect width="108" height="27" fill="white"/>
</clipPath>
</defs>
</svg>
