<svg width="24" height="25" viewBox="0 0 24 25" fill="none" xmlns="http://www.w3.org/2000/svg">
<g clip-path="url(#clip0_31_1182)">
<rect x="3.09619" y="5.0813" width="18.2421" height="16.802" fill="white"/>
<path d="M17.6645 9.32113C17.5595 8.91204 17.2555 8.44704 16.8736 8.04749C16.4045 7.55659 15.8045 7.15568 15.2795 7.0384C13.1122 6.62522 10.8864 6.62522 8.71909 7.0384C7.76455 7.25113 6.56864 8.40204 6.33546 9.32113C5.94547 11.0954 5.94547 12.9332 6.33546 14.7075C6.52364 15.4507 7.34046 16.3439 8.14909 16.7707C8.32851 16.8692 8.52017 16.9434 8.71909 16.9916C8.73957 16.9948 8.75823 17.0052 8.77172 17.021C8.78521 17.0367 8.79266 17.0568 8.79273 17.0775V19.697C8.79296 19.7259 8.80181 19.754 8.81813 19.7777C8.83446 19.8015 8.85752 19.8198 8.88435 19.8304C8.91118 19.841 8.94055 19.8432 8.96869 19.837C8.99684 19.8307 9.02246 19.8162 9.04227 19.7952L10.2873 18.5202C10.2873 18.5202 11.2773 17.5016 11.4559 17.3202C11.4642 17.3112 11.4743 17.3041 11.4856 17.2994C11.4969 17.2947 11.5091 17.2925 11.5214 17.293C12.7813 17.3268 14.0413 17.2254 15.2795 16.9902C16.2341 16.7761 17.43 15.6266 17.6645 14.7061C18.0543 12.9323 18.0543 11.095 17.6645 9.32113ZM15.3136 14.8384C15.1362 15.2425 14.8317 15.5777 14.4464 15.793C14.3254 15.8447 14.1999 15.8849 14.0714 15.9129C13.9255 15.8679 13.7864 15.838 13.6623 15.7848C12.6306 15.382 11.6706 14.8157 10.8191 14.1075C10.5661 13.8904 10.3278 13.6567 10.1059 13.4079C9.55996 12.7782 9.10129 12.0778 8.74227 11.3257C8.56773 10.9711 8.42046 10.6016 8.27046 10.2348C8.13409 9.89931 8.33591 9.55295 8.54318 9.3034C8.74587 9.07176 8.99548 8.88583 9.27546 8.75795C9.37387 8.70819 9.48663 8.69459 9.59406 8.71951C9.70148 8.74443 9.79674 8.8063 9.86318 8.89431C10.2087 9.28747 10.5134 9.71466 10.7727 10.1693C10.8546 10.3016 10.8825 10.4602 10.8508 10.6124C10.8191 10.7647 10.7301 10.8989 10.6023 10.9875C10.5341 11.0339 10.4659 11.0898 10.4073 11.1402C10.3497 11.1844 10.2999 11.2378 10.26 11.2984C10.2256 11.3548 10.2047 11.4183 10.1991 11.4841C10.1934 11.5499 10.203 11.6161 10.2273 11.6775C10.4563 12.3773 10.8965 12.989 11.4873 13.4284C11.69 13.5707 11.9077 13.6905 12.1364 13.7857C12.2864 13.866 12.4544 13.9069 12.6245 13.9043C12.9218 13.8689 13.02 13.5402 13.2273 13.3698C13.3227 13.2923 13.4406 13.2476 13.5634 13.2425C13.6863 13.2373 13.8075 13.2719 13.9091 13.3411C14.13 13.4775 14.3427 13.6302 14.5555 13.7802C14.7655 13.9243 14.9681 14.079 15.1623 14.2439C15.2525 14.3101 15.3169 14.4055 15.3446 14.514C15.3722 14.6224 15.3612 14.7371 15.3136 14.8384ZM13.3555 11.5657C13.3471 11.5428 13.3416 11.519 13.3391 11.4948C13.3322 11.403 13.3185 11.3118 13.2982 11.222C13.2581 11.0397 13.1547 10.8773 13.0064 10.7639C12.9346 10.7126 12.8549 10.6735 12.7705 10.6479C12.6627 10.6193 12.5495 10.6275 12.4432 10.6016C12.3905 10.5919 12.3438 10.5619 12.3131 10.518C12.2825 10.4741 12.2704 10.4198 12.2795 10.367C12.2899 10.3167 12.3181 10.2717 12.3589 10.2404C12.3998 10.2091 12.4505 10.1936 12.5018 10.1966C13.1264 10.2443 13.5927 10.5429 13.7127 11.2139C13.7252 11.276 13.7338 11.3388 13.7386 11.402C13.7476 11.4585 13.7476 11.516 13.7386 11.5725C13.7313 11.6072 13.7135 11.6389 13.6877 11.6633C13.6618 11.6876 13.6292 11.7035 13.5941 11.7089H13.5859H13.5436H13.5695C13.5228 11.7134 13.4759 11.7016 13.4369 11.6755C13.3979 11.6494 13.3691 11.6106 13.3555 11.5657ZM13.1564 9.87477C12.9459 9.77708 12.7228 9.70915 12.4936 9.67295C12.3927 9.65659 12.2918 9.64568 12.1909 9.6334C12.1645 9.6321 12.1387 9.62537 12.115 9.61363C12.0913 9.6019 12.0703 9.5854 12.0533 9.56519C12.0363 9.54497 12.0236 9.52146 12.0161 9.49613C12.0086 9.47079 12.0063 9.44418 12.0095 9.41795C12.0098 9.39134 12.0156 9.36507 12.0266 9.34086C12.0376 9.31664 12.0536 9.29502 12.0736 9.27739C12.0935 9.25977 12.1169 9.24654 12.1423 9.23857C12.1677 9.2306 12.1945 9.22807 12.2209 9.23113C12.6214 9.24593 13.0138 9.34833 13.3705 9.53113C13.8059 9.74973 14.1613 10.0999 14.3864 10.532C14.5128 10.7859 14.5976 11.0585 14.6373 11.3393C14.6448 11.3758 14.6503 11.4127 14.6536 11.4498C14.6605 11.5316 14.6632 11.612 14.67 11.7143V11.7525C14.669 11.793 14.6635 11.8332 14.6536 11.8725C14.6414 11.9118 14.6174 11.9464 14.5848 11.9715C14.5523 11.9967 14.5128 12.0112 14.4717 12.0132C14.4306 12.0151 14.3899 12.0044 14.3551 11.9824C14.3203 11.9604 14.2931 11.9282 14.2773 11.8902C14.2619 11.8352 14.255 11.7782 14.2568 11.7211C14.2596 11.4166 14.1993 11.1148 14.0795 10.8348C14.0523 10.7734 14.0223 10.7148 13.9882 10.6548C13.7924 10.3199 13.5034 10.0494 13.1564 9.87613V9.87477ZM15.4091 12.3907C15.2727 12.3907 15.2059 12.2761 15.1964 12.1493C15.1786 11.8998 15.165 11.6475 15.1309 11.4007C15.0722 10.9815 14.9264 10.5792 14.7027 10.2198C14.4727 9.84594 14.1671 9.52434 13.8054 9.27565C13.4438 9.02695 13.0341 8.85664 12.6027 8.77568C12.4064 8.74159 12.2059 8.7334 12.0082 8.71295C11.8827 8.69931 11.7177 8.69113 11.6905 8.53568C11.6866 8.50552 11.6892 8.47489 11.698 8.44581C11.7068 8.41672 11.7217 8.38983 11.7417 8.3669C11.7617 8.34398 11.7862 8.32553 11.8138 8.31279C11.8414 8.30004 11.8714 8.29328 11.9018 8.29295C11.9345 8.29043 11.9673 8.29043 12 8.29295H12.0436C12.6324 8.30427 13.2095 8.45927 13.7248 8.74445C14.24 9.02964 14.6778 9.43639 15 9.92931C15.2585 10.3303 15.4338 10.7792 15.5155 11.2493C15.5673 11.5452 15.5864 11.8479 15.6095 12.1466C15.6144 12.1761 15.6129 12.2063 15.6052 12.2352C15.5974 12.2641 15.5836 12.291 15.5646 12.3141C15.5457 12.3372 15.522 12.356 15.4951 12.3692C15.4683 12.3824 15.439 12.3897 15.4091 12.3907Z" fill="#731DAC"/>
<path d="M23.5907 4.94928C23.4862 3.95501 23.0434 3.02676 22.3365 2.31983C21.6296 1.61289 20.7013 1.17015 19.707 1.06565C14.5853 0.516529 9.41963 0.516529 4.29794 1.06565C3.30268 1.16897 2.37317 1.6112 1.66513 2.31824C0.9571 3.02528 0.513568 3.95417 0.40885 4.94928C-0.137585 10.0711 -0.137585 15.2365 0.40885 20.3584C0.512171 21.3536 0.954399 22.2831 1.66144 22.9912C2.36848 23.6992 3.29737 24.1427 4.29249 24.2475C9.41417 24.7966 14.5799 24.7966 19.7016 24.2475C20.6968 24.1441 21.6264 23.7019 22.3344 22.9949C23.0424 22.2878 23.486 21.3589 23.5907 20.3638C24.1375 15.2402 24.1375 10.0729 23.5907 4.94928ZM18.9325 14.9938V15.0102C18.5834 16.427 17.0043 17.9447 15.5548 18.2611H15.5384C14.3722 18.4856 13.1874 18.5993 11.9998 18.6006C11.6534 18.6006 11.3043 18.5897 10.9579 18.5679L9.35703 20.2343C9.26903 20.3247 9.15609 20.3869 9.03261 20.413C8.90912 20.439 8.78069 20.4276 8.66367 20.3804C8.54665 20.3332 8.44635 20.2521 8.37555 20.1477C8.30475 20.0432 8.26665 19.92 8.26612 19.7938V18.212C7.8901 18.1008 7.53226 17.9354 7.20385 17.7211C6.19749 17.0816 5.32476 16.0193 5.07385 15.0102V14.9938C4.64159 13.0314 4.64159 10.9985 5.07385 9.0361V9.01838C5.42294 7.60156 7.00067 6.08383 8.4543 5.76747H8.47067C10.8048 5.31884 13.2029 5.31884 15.537 5.76747H15.5452C16.3279 5.93792 17.1475 6.45883 17.7911 7.1311C18.3366 7.69701 18.762 8.37065 18.9229 9.02247V9.04019C19.3573 11.0007 19.3601 13.0322 18.9311 14.9938H18.9325Z" fill="#731DAC"/>
</g>
<defs>
<clipPath id="clip0_31_1182">
<rect width="24" height="24" fill="white" transform="translate(0 0.656494)"/>
</clipPath>
</defs>
</svg>
