<svg width="24" height="25" viewBox="0 0 24 25" fill="none" xmlns="http://www.w3.org/2000/svg">
<g clip-path="url(#clip0_31_1189)">
<rect x="3.43848" y="5.0813" width="18.2421" height="16.802" fill="white"/>
<path d="M16.1497 8.50694L16.1197 8.47694C15.139 7.49599 13.8406 6.89713 12.4578 6.78806C11.0751 6.679 9.69878 7.0669 8.57649 7.88199C7.4542 8.69708 6.65957 9.88587 6.33553 11.2345C6.01148 12.5832 6.17929 14.0032 6.80877 15.2392L7.06513 15.7438L6.58786 18.0619L6.58104 18.0919L8.88422 17.5465L9.40922 17.8124C10.5016 18.3551 11.7366 18.5417 12.9405 18.346C14.1445 18.1503 15.2568 17.5822 16.121 16.7215C17.2082 15.6342 17.8214 14.1613 17.827 12.6238C17.8326 11.0863 17.2302 9.60893 16.151 8.51376L16.1497 8.50694ZM15.9151 15.0142C15.6329 15.4588 15.187 16.0015 14.6265 16.1365C13.6447 16.3751 12.1379 16.1447 10.2629 14.3979L10.2397 14.376C8.59104 12.8488 8.16286 11.5765 8.2665 10.5674C8.32377 9.99331 8.80104 9.47649 9.20331 9.13694C9.26702 9.08294 9.34244 9.04454 9.42359 9.02478C9.50473 9.00502 9.58937 9.00445 9.67077 9.02311C9.75218 9.04178 9.82811 9.07916 9.89254 9.1323C9.95697 9.18543 10.0081 9.25286 10.042 9.32922L10.6488 10.701C10.6885 10.7894 10.7033 10.8869 10.6915 10.9831C10.6797 11.0792 10.6418 11.1703 10.582 11.2465L10.2751 11.6447C10.2109 11.7263 10.1721 11.8251 10.1636 11.9286C10.1551 12.0322 10.1773 12.1359 10.2274 12.2269C10.3992 12.5269 10.811 12.9701 11.2679 13.3819C11.7806 13.8442 12.3492 14.2683 12.7092 14.4142C12.8058 14.4528 12.9116 14.4619 13.0133 14.4403C13.1151 14.4187 13.2081 14.3674 13.2806 14.2929L13.6365 13.9342C13.7052 13.8665 13.7906 13.8182 13.884 13.7942C13.9774 13.7703 14.0755 13.7715 14.1683 13.7979L15.6097 14.2069C15.6894 14.2313 15.7625 14.2736 15.8233 14.3305C15.8841 14.3875 15.9311 14.4577 15.9606 14.5356C15.9901 14.6135 16.0013 14.6972 15.9934 14.7802C15.9856 14.8632 15.9588 14.9432 15.9151 15.0142Z" fill="#5BC44F"/>
<path d="M20.7273 0.656494H3.27273C2.40475 0.656494 1.57232 1.0013 0.95856 1.61505C0.344804 2.22881 0 3.06124 0 3.92922L0 21.3838C0 22.2517 0.344804 23.0842 0.95856 23.6979C1.57232 24.3117 2.40475 24.6565 3.27273 24.6565H20.7273C21.5953 24.6565 22.4277 24.3117 23.0414 23.6979C23.6552 23.0842 24 22.2517 24 21.3838V3.92922C24 3.06124 23.6552 2.22881 23.0414 1.61505C22.4277 1.0013 21.5953 0.656494 20.7273 0.656494ZM19.4359 12.8338C19.3957 14.0796 19.0431 15.2953 18.4107 16.3694C17.7782 17.4435 16.886 18.3415 15.8161 18.981C14.7462 19.6204 13.5328 19.9809 12.2873 20.0293C11.0417 20.0777 9.80403 19.8124 8.68773 19.2579L4.93091 20.1483C4.87397 20.1616 4.81435 20.1573 4.75985 20.1362C4.70536 20.115 4.65851 20.0779 4.62545 20.0297C4.60314 19.9977 4.58764 19.9614 4.57989 19.9232C4.57215 19.885 4.57234 19.8456 4.58045 19.8074L5.37 15.9742C4.85501 14.963 4.57817 13.8473 4.56067 12.7126C4.54316 11.5779 4.78546 10.4543 5.26902 9.42764C5.75258 8.40099 6.46459 7.49857 7.35055 6.78942C8.23652 6.08027 9.27297 5.58319 10.3806 5.33622C11.4882 5.08925 12.6377 5.09892 13.741 5.36451C14.8443 5.63009 15.8722 6.14455 16.7461 6.86852C17.62 7.59248 18.3167 8.50676 18.783 9.5414C19.2492 10.576 19.4725 11.7036 19.4359 12.8379V12.8338Z" fill="#5BC44F"/>
</g>
<defs>
<clipPath id="clip0_31_1189">
<rect width="24" height="24" fill="white" transform="translate(0 0.656494)"/>
</clipPath>
</defs>
</svg>
