<svg width="87" height="87" viewBox="0 0 87 87" fill="none" xmlns="http://www.w3.org/2000/svg">
<path d="M58.5 7.5H3C1.89543 7.5 1 8.39543 1 9.5V84C1 85.1046 1.89543 86 3 86H58.5C59.6046 86 60.5 85.1046 60.5 84V9.5C60.5 8.39543 59.6046 7.5 58.5 7.5Z" stroke="#747E94" stroke-width="2"/>
<path d="M44.5 1H16.5C15.3954 1 14.5 1.89543 14.5 3V11C14.5 12.1046 15.3954 13 16.5 13H44.5C45.6046 13 46.5 12.1046 46.5 11V3C46.5 1.89543 45.6046 1 44.5 1Z" fill="#747E94" stroke="#747E94" stroke-width="2"/>
<path d="M20.5 19H12.5C11.3954 19 10.5 19.8954 10.5 21V29C10.5 30.1046 11.3954 31 12.5 31H20.5C21.6046 31 22.5 30.1046 22.5 29V21C22.5 19.8954 21.6046 19 20.5 19Z" fill="#3E4A66" stroke="#747E94" stroke-width="2"/>
<path d="M30.5 20.5H43.5" stroke="#747E94" stroke-width="2" stroke-linecap="round"/>
<path d="M30.5 29.5H43.5" stroke="#747E94" stroke-width="2" stroke-linecap="round"/>
<path d="M20.5 41H12.5C11.3954 41 10.5 41.8954 10.5 43V51C10.5 52.1046 11.3954 53 12.5 53H20.5C21.6046 53 22.5 52.1046 22.5 51V43C22.5 41.8954 21.6046 41 20.5 41Z" fill="#3E4A66" stroke="#747E94" stroke-width="2"/>
<path d="M30.5 42.5H43.5" stroke="#747E94" stroke-width="2" stroke-linecap="round"/>
<path d="M30.5 51.5H43.5" stroke="#747E94" stroke-width="2" stroke-linecap="round"/>
<path d="M20.5 63H12.5C11.3954 63 10.5 63.8954 10.5 65V73C10.5 74.1046 11.3954 75 12.5 75H20.5C21.6046 75 22.5 74.1046 22.5 73V65C22.5 63.8954 21.6046 63 20.5 63Z" fill="#3E4A66" stroke="#747E94" stroke-width="2"/>
<path d="M30.5 64.5H43.5" stroke="#747E94" stroke-width="2" stroke-linecap="round"/>
<path d="M30.5 73.5H51.5" stroke="#747E94" stroke-width="2" stroke-linecap="round"/>
<circle cx="60" cy="52" r="12" fill="#3E4A66" stroke="#747E94" stroke-width="2"/>
<path d="M54.8165 53.3653L59.5671 56.2988L64.0556 47.0004" stroke="#747E94" stroke-width="2" stroke-linecap="round"/>
<path d="M68.0254 61.9912L73.9557 68.9997" stroke="#747E94" stroke-width="3" stroke-linecap="round"/>
</svg>
