<svg width="97" height="91" viewBox="0 0 97 91" fill="none" xmlns="http://www.w3.org/2000/svg">
<path d="M88.7411 52.3248C92.2207 62.923 87.2652 74.5047 77.8762 78.293C68.4872 82.0814 57.9756 76.7404 54.496 66.1423C51.0164 55.5441 55.9718 43.9624 65.3609 40.174C74.7499 36.3857 85.2614 41.7266 88.7411 52.3248Z" stroke="#747E94" stroke-width="2"/>
<path d="M66.5088 43.6709L67.2388 45.8942" stroke="#747E94" stroke-width="2" stroke-linecap="round"/>
<path d="M85.6572 53.5693L83.6517 54.3785" stroke="#747E94" stroke-width="2" stroke-linecap="round"/>
<path d="M75.999 72.5732L76.729 74.7966" stroke="#747E94" stroke-width="2" stroke-linecap="round"/>
<path d="M59.585 64.0889L57.5794 64.8981" stroke="#747E94" stroke-width="2" stroke-linecap="round"/>
<path d="M72.9824 46.0939L71.5428 60.3331L79.5462 62.107" stroke="#747E94" stroke-width="2" stroke-linecap="round"/>
<path d="M2.01694 18.9838C1.75743 17.9102 2.40542 16.7848 3.46427 16.4703L38.5349 6.05289C39.0731 5.89305 39.6419 5.96988 40.1024 6.26462L51.2237 13.3827C51.6336 13.645 51.926 14.0598 52.0434 14.5455L66.2076 73.1462C66.4671 74.2198 65.8191 75.3452 64.7603 75.6597L20.9184 88.6825C19.8596 88.997 18.7909 88.3816 18.5314 87.308L2.01694 18.9838Z" fill="#313A4E" stroke="#747E94" stroke-width="2"/>
<path d="M41.6189 19.1692C41.0895 19.3264 40.5551 19.0187 40.4254 18.4819L37.5567 6.61433C37.3423 5.72733 38.3155 4.9843 39.0641 5.46343L52.6381 14.1512C53.3514 14.6078 53.1578 15.7418 52.3242 15.9894L41.6189 19.1692Z" fill="#747E94"/>
<path d="M12.4443 30.5771L34.3577 24.068" stroke="#747E94" stroke-width="2" stroke-linecap="round"/>
<path d="M14.917 40.8057L43.7504 32.241" stroke="#747E94" stroke-width="2" stroke-linecap="round"/>
<path d="M17.3896 51.0342L46.223 42.4695" stroke="#747E94" stroke-width="2" stroke-linecap="round"/>
<path d="M19.8613 61.2627L48.6947 52.698" stroke="#747E94" stroke-width="2" stroke-linecap="round"/>
<path d="M43.5994 67.4159L50.1379 71.4534L56.3156 58.6555" stroke="#747E94" stroke-width="2" stroke-linecap="round"/>
</svg>
