<svg width="95" height="70" viewBox="0 0 95 70" fill="none" xmlns="http://www.w3.org/2000/svg">
<path d="M1.40723 22C1.40723 19.7909 3.19809 18 5.40723 18L67.1031 18C69.3123 18 71.1031 19.7909 71.1031 22V62.9169C71.1031 65.126 69.3123 66.9169 67.1031 66.9169H5.40724C3.19809 66.9169 1.40723 65.126 1.40723 62.9169L1.40723 22Z" fill="#3E4A66" stroke="#747E94" stroke-width="2"/>
<path d="M24.7077 5.14479C25.2267 2.99748 27.3642 1.76669 29.4819 2.39573L89.1488 20.1192C91.2665 20.7483 92.5625 22.9989 92.0434 25.1462L82.5052 64.6081C81.9862 66.7554 79.8488 67.9862 77.7311 67.3572L18.0642 49.6337C15.9465 49.0046 14.6505 46.7539 15.1695 44.6066L24.7077 5.14479Z" fill="#313A4E" stroke="#747E94" stroke-width="2"/>
<path d="M23.0381 12.0536L90.3738 32.0551L87.9443 42.1067L20.6086 22.1052L23.0381 12.0536Z" fill="#3E4A66" stroke="#747E94" stroke-width="2"/>
<path d="M66.5127 48.1083L78.6625 51.7173L76.8129 59.3698L64.6631 55.7608L66.5127 48.1083Z" fill="#3E4A66" stroke="#747E94" stroke-width="2"/>
<path d="M48.9005 49.55L22.9307 41.8359" stroke="#747E94" stroke-width="2"/>
</svg>
