<svg width="81" height="88" viewBox="0 0 81 88" fill="none" xmlns="http://www.w3.org/2000/svg">
<path d="M1.40723 52L50.8248 52V87H1.40723L1.40723 52Z" fill="#313A4E" stroke="#747E94" stroke-width="2"/>
<path d="M53.4147 32.1887C52.9559 26.5421 53.3572 20.7078 53.6775 17.4396C55.4683 20.0365 58.4969 24.7618 60.657 29.8644C61.7623 32.4753 62.6253 35.1508 62.9897 37.6666C63.3523 40.1709 63.2098 42.4393 62.3984 44.3176L58.206 45.5617C56.769 44.4515 55.6827 42.6099 54.8963 40.2502C54.1067 37.8805 53.6494 35.078 53.4147 32.1887Z" fill="#313A4E" stroke="#747E94" stroke-width="2"/>
<path d="M59.2061 23.6354C60.7139 14.9945 63.595 6.63057 65.0616 2.69534C66.598 6.57357 69.599 14.7972 71.1441 23.378C71.928 27.7307 72.3295 32.135 71.9929 36.0895C71.6567 40.0393 70.592 43.4515 68.5289 45.9333H61.5374C59.62 43.6023 58.631 40.279 58.3342 36.3573C58.0372 32.4338 58.4413 28.0189 59.2061 23.6354Z" fill="#313A4E" stroke="#747E94" stroke-width="2"/>
<path d="M67.9564 30.5256C70.107 25.3814 73.0872 20.5512 74.8394 17.8983C75.2184 21.1394 75.7089 26.9095 75.2772 32.5252C75.0562 35.3986 74.5964 38.1938 73.7766 40.5744C72.9607 42.944 71.8136 44.8296 70.2634 46.0066L66.0714 44.7614C65.3278 43.0038 65.2181 40.8071 65.6019 38.3279C65.9873 35.8382 66.8559 33.1579 67.9564 30.5256Z" fill="#313A4E" stroke="#747E94" stroke-width="2"/>
<path d="M50.3272 62.6849C50.1164 53.3831 51.1358 44.7558 51.4925 42.0664H76.2296C76.6328 44.6983 77.795 53.1681 77.6435 62.4024C77.5674 67.0326 77.1614 71.826 76.176 76.1578C75.1905 80.4902 73.6427 84.2839 71.3366 86.9997H56.3686C54.2171 84.4457 52.7487 80.7459 51.7978 76.4474C50.8474 72.1514 50.4329 67.3479 50.3272 62.6849Z" fill="#3E4A66" stroke="#747E94" stroke-width="2"/>
<mask id="path-6-inside-1_288_16725" fill="white">
<rect x="5.81934" y="20" width="36.0825" height="33" rx="1"/>
</mask>
<rect x="5.81934" y="20" width="36.0825" height="33" rx="1" fill="#3E4A66" stroke="#747E94" stroke-width="4" mask="url(#path-6-inside-1_288_16725)"/>
<path d="M14.9551 21.4922C14.9551 20.9399 15.4028 20.4922 15.9551 20.4922H25.9167C26.4689 20.4922 26.9167 20.9399 26.9167 21.4922V36.4537C26.9167 37.2991 25.9327 37.7631 25.2805 37.2253L21.5721 34.1674C21.2026 33.8628 20.6691 33.8628 20.2997 34.1674L16.5913 37.2253C15.939 37.7631 14.9551 37.2991 14.9551 36.4537V21.4922Z" fill="#747E94"/>
<path d="M28.3711 52C28.3711 51.4477 28.8188 51 29.3711 51H40C40.5522 51 41 51.4477 41 52V67.8858C41 68.7301 40.0183 69.1944 39.3656 68.6588L35.3199 65.3388C34.9511 65.0361 34.4199 65.0361 34.0512 65.3388L30.0055 68.6588C29.3528 69.1944 28.3711 68.7301 28.3711 67.8858V52Z" fill="#747E94"/>
</svg>
