<svg width="14" height="18" viewBox="0 0 14 18" fill="none" xmlns="http://www.w3.org/2000/svg">
<path d="M6.99992 0.666992C5.2433 0.666904 3.55763 1.36012 2.30929 2.59598C1.06094 3.83185 0.350818 5.51046 0.333252 7.26699C0.333252 11.8337 6.20825 16.917 6.45825 17.1337C6.6092 17.2628 6.80129 17.3337 6.99992 17.3337C7.19855 17.3337 7.39064 17.2628 7.54158 17.1337C7.83325 16.917 13.6666 11.8337 13.6666 7.26699C13.649 5.51046 12.9389 3.83185 11.6905 2.59598C10.4422 1.36012 8.75654 0.666904 6.99992 0.666992ZM6.99992 9.83366C6.42306 9.83366 5.85915 9.6626 5.37951 9.34211C4.89986 9.02162 4.52603 8.5661 4.30527 8.03315C4.08451 7.5002 4.02675 6.91376 4.13929 6.34798C4.25183 5.7822 4.52962 5.2625 4.93752 4.8546C5.34543 4.44669 5.86513 4.16891 6.4309 4.05637C6.99668 3.94383 7.58313 4.00159 8.11608 4.22234C8.64903 4.4431 9.10455 4.81694 9.42504 5.29658C9.74553 5.77622 9.91658 6.34013 9.91658 6.91699C9.91658 7.69054 9.60929 8.43241 9.06231 8.97939C8.51533 9.52637 7.77347 9.83366 6.99992 9.83366Z" fill="#3E4A66"/>
</svg>
