<svg width="44" height="56" viewBox="0 0 44 56" fill="none" xmlns="http://www.w3.org/2000/svg">
<path d="M22.0234 12.5C20.1445 12.5 18.3078 13.0572 16.7455 14.101C15.1833 15.1449 13.9656 16.6286 13.2466 18.3645C12.5275 20.1004 12.3394 22.0105 12.706 23.8534C13.0725 25.6962 13.9773 27.3889 15.3059 28.7175C16.6345 30.0461 18.3273 30.9509 20.1701 31.3175C22.0129 31.684 23.923 31.4959 25.6589 30.7769C27.3948 30.0578 28.8785 28.8402 29.9224 27.2779C30.9663 25.7157 31.5234 23.8789 31.5234 22C31.5234 19.4804 30.5225 17.0641 28.741 15.2825C26.9594 13.5009 24.543 12.5 22.0234 12.5ZM22.0234 28.5C20.7379 28.5 19.4812 28.1188 18.4122 27.4046C17.3433 26.6903 16.5102 25.6752 16.0182 24.4874C15.5263 23.2997 15.3975 21.9928 15.6483 20.7319C15.8991 19.471 16.5182 18.3128 17.4272 17.4038C18.3363 16.4948 19.4945 15.8757 20.7554 15.6249C22.0162 15.3741 23.3232 15.5028 24.5109 15.9948C25.6986 16.4868 26.7138 17.3199 27.428 18.3888C28.1422 19.4577 28.5234 20.7144 28.5234 22C28.5169 23.7219 27.8299 25.3714 26.6124 26.5889C25.3948 27.8065 23.7453 28.4934 22.0234 28.5ZM22.0234 0.5C16.3233 0.506617 10.8585 2.77391 6.82795 6.80451C2.79735 10.8351 0.530054 16.2999 0.523438 22C0.523438 29.725 4.12344 37.925 10.8984 45.725C13.9536 49.2696 17.4006 52.4566 21.1734 55.225C21.4223 55.4009 21.7188 55.4968 22.0234 55.5C22.3352 55.4929 22.6386 55.3975 22.8984 55.225C26.654 52.4448 30.0914 49.2589 33.1484 45.725C39.9484 37.925 43.5234 29.725 43.5234 22C43.5168 16.2999 41.2495 10.8351 37.2189 6.80451C33.1883 2.77391 27.7236 0.506617 22.0234 0.5ZM22.0234 52.125C18.2734 49.225 3.52344 36.9 3.52344 22C3.52344 17.0935 5.47254 12.3879 8.94196 8.91852C12.4114 5.4491 17.1169 3.5 22.0234 3.5C26.9299 3.5 31.6355 5.4491 35.1049 8.91852C38.5743 12.3879 40.5234 17.0935 40.5234 22C40.5234 36.9 25.7734 49.225 22.0234 52.125Z" fill="#A5BEF7"/>
</svg>
