<svg width="28" height="22" viewBox="0 0 28 22" fill="none" xmlns="http://www.w3.org/2000/svg">
<path d="M23.3346 0.333008H4.66797C3.6071 0.333008 2.58969 0.754435 1.83954 1.50458C1.0894 2.25473 0.667969 3.27214 0.667969 4.33301V17.6663C0.667969 18.7272 1.0894 19.7446 1.83954 20.4948C2.58969 21.2449 3.6071 21.6663 4.66797 21.6663H23.3346C24.3955 21.6663 25.4129 21.2449 26.1631 20.4948C26.9132 19.7446 27.3346 18.7272 27.3346 17.6663V4.33301C27.3346 3.27214 26.9132 2.25473 26.1631 1.50458C25.4129 0.754435 24.3955 0.333008 23.3346 0.333008ZM22.4413 2.99967L14.0013 9.33301L5.5613 2.99967H22.4413ZM23.3346 18.9997H4.66797C4.31435 18.9997 3.97521 18.8592 3.72516 18.6092C3.47511 18.3591 3.33464 18.02 3.33464 17.6663V4.66634L13.2013 12.0663C13.4321 12.2394 13.7128 12.333 14.0013 12.333C14.2898 12.333 14.5705 12.2394 14.8013 12.0663L24.668 4.66634V17.6663C24.668 18.02 24.5275 18.3591 24.2774 18.6092C24.0274 18.8592 23.6883 18.9997 23.3346 18.9997Z" fill="#A5BEF7"/>
</svg>
