<svg width="24" height="24" viewBox="0 0 24 24" fill="none" xmlns="http://www.w3.org/2000/svg">
<path d="M17.707 2.29279C17.5195 2.10532 17.2652 2 17 2C16.7348 2 16.4805 2.10532 16.293 2.29279L14 4.58579L12.707 3.29279C12.5195 3.10532 12.2652 3 12 3C11.7348 3 11.4805 3.10532 11.293 3.29279L5.293 9.29279C5.11084 9.48139 5.01005 9.73399 5.01233 9.99619C5.0146 10.2584 5.11977 10.5092 5.30518 10.6946C5.49059 10.88 5.7414 10.9852 6.0036 10.9875C6.2658 10.9897 6.5184 10.8889 6.707 10.7068L12 5.41379L12.586 5.99979L10.293 8.29279L3.293 15.2928C3.10545 15.4803 3.00006 15.7346 3 15.9998V19.9998C3 20.265 3.10536 20.5194 3.29289 20.7069C3.48043 20.8944 3.73478 20.9998 4 20.9998H8C8.26519 20.9997 8.51951 20.8943 8.707 20.7068L15.707 13.7068L21.707 7.70679C21.8945 7.51926 21.9998 7.26495 21.9998 6.99979C21.9998 6.73462 21.8945 6.48031 21.707 6.29279L17.707 2.29279ZM14.707 6.70679L17 4.41379L19.586 6.99979L15 11.5858L12.414 8.99979L14.707 6.70679ZM5 16.4138L11 10.4138L13.586 12.9998L7.586 18.9998H5V16.4138Z" fill="#CED2DB"/>
</svg>
