<svg width="138" height="42" viewBox="0 0 138 42" fill="none" xmlns="http://www.w3.org/2000/svg">
<path fill-rule="evenodd" clip-rule="evenodd" d="M51.6185 5.96614C53.0037 5.96614 54.3125 4.84801 54.3125 3.35591C54.3125 1.78977 52.9273 0.67088 51.6185 0.67088C51.2641 0.668772 50.9129 0.734873 50.5851 0.86535C50.2573 0.995828 49.9595 1.18808 49.7089 1.43097C49.4584 1.67385 49.2601 1.96253 49.1256 2.28025C48.9911 2.59798 48.923 2.93844 48.9252 3.28187C48.9245 4.84801 50.1561 5.96614 51.6185 5.96614ZM49.4631 3.28111C49.4631 2.08743 50.4632 1.19217 51.6177 1.19217C52.7722 1.19217 53.7731 2.08743 53.7731 3.28111C53.7731 4.54883 52.7722 5.4441 51.6177 5.4441C50.4632 5.4441 49.4631 4.54959 49.4631 3.28111ZM51.1562 3.50474H51.6177L52.3871 4.84725H52.8485L52.002 3.50474C52.4635 3.42995 52.7714 3.20632 52.7714 2.68427C52.7714 2.08743 52.3863 1.78901 51.6941 1.78901H50.694L50.6168 4.84725H51.1554L51.1562 3.50474ZM51.1562 3.13228V2.16223H51.6177C52.0028 2.16223 52.3107 2.31181 52.3107 2.68427C52.3107 3.13153 52.0028 3.13152 51.6177 3.13152L51.1562 3.13228ZM15.9859 32.7431C13.4463 29.9085 15.3701 24.8369 15.8324 20.5109C15.3709 20.9582 9.5214 34.31 4.21133 33.788C-0.482925 32.5203 0.132893 27.2242 1.59527 23.3455H8.98353C6.82817 29.6864 9.98444 27.0762 12.2154 22.9723C16.5254 14.0968 16.6789 13.3511 21.6039 0H29.9931C27.5306 7.60783 25.1445 14.992 24.0672 22.8235C24.0672 23.1967 24.1444 23.4951 24.4523 23.3455C26.299 22.9723 35.919 1.49135 36.7655 0H44.8468C44.7696 0.745673 35.9962 25.062 37.3814 27.299C38.0744 28.5683 39.0745 26.1809 39.9974 25.1361L41.3062 26.5541C38.6122 29.3887 35.5347 34.5352 31.224 33.7887C30.6081 33.5644 30.0703 33.1927 29.5308 32.8194C25.1445 29.0155 33.4557 14.918 32.3784 13.7991C32.2241 13.7243 31.4547 15.3653 31.3775 15.5896C28.8378 20.6613 23.1427 33.9383 18.5256 33.9383C17.7562 33.9368 16.371 33.1919 15.9859 32.7431ZM78.0145 33.2652C77.1679 33.0423 76.7065 32.5935 76.3993 31.6242C76.3214 31.4754 76.3214 31.3999 76.3214 31.177C76.3214 30.7282 76.3993 30.281 76.4749 29.7589C76.5529 29.3872 76.7836 28.9385 76.7836 28.4912C76.86 28.4912 76.86 28.4157 76.86 28.3424L76.7065 28.4912C76.4749 28.4912 76.0135 29.0873 75.7063 29.3117C75.2449 29.6849 74.7818 30.0581 74.4747 30.281C73.7061 30.8786 72.9352 31.4747 71.935 31.9967C71.935 31.9967 71.7035 32.2196 71.32 32.5188C70.857 32.7416 70.4734 32.966 70.0884 33.0408C69.6269 33.2297 69.1179 33.2815 68.626 33.1896C67.7023 32.9653 67.0093 32.2936 66.625 31.4739C66.5478 30.8778 66.625 30.1314 66.9329 29.3857C67.2408 28.1165 67.7794 27.2227 68.1645 26.1023C68.3181 25.5063 68.5488 24.9842 68.8567 24.2385C69.0874 23.4921 69.3954 22.6716 69.7033 21.926C69.7812 21.3284 70.0884 20.6575 70.1647 20.2102C70.2427 20.1354 70.1647 20.0614 70.2427 19.9866C70.1647 19.8378 70.1647 19.8378 69.9348 19.8378C69.4733 20.0614 69.0111 20.3598 68.7032 20.5835C68.1645 20.8819 67.7023 21.1803 67.1636 21.3291C67.0093 21.4047 67.0864 21.1063 67.0864 20.8819C67.0864 20.4346 67.1636 20.0614 67.0864 19.3898C67.0864 19.3898 67.1636 19.3898 67.1636 19.315C67.1636 19.1654 67.3179 19.0913 67.3943 19.0913C69.3946 17.8977 71.3956 16.4063 73.3966 15.2874C73.5518 15.2874 73.7817 15.1386 74.1668 14.915C74.6283 14.6913 75.6284 14.7654 76.0914 14.915C76.5529 15.0638 76.86 15.437 76.938 15.8102C77.0915 16.7055 76.0914 18.2716 75.7827 19.3157C75.8607 19.3905 75.6292 19.8378 75.6292 19.8378C75.3213 20.733 75.1677 21.3291 74.7826 22.374C74.3991 23.5677 73.9361 24.8354 73.4746 26.1031C73.321 26.5519 72.9359 27.744 72.8595 28.1928C72.706 28.4157 72.8595 28.4912 73.0131 28.566C73.0895 28.7148 73.4746 28.4905 73.7061 28.4157C74.1676 28.1172 74.9362 27.3723 75.3992 26.9236C75.5528 26.8495 75.7827 26.6251 75.9379 26.4763C76.5529 25.6558 77.1679 24.9842 77.9381 23.9416C78.0145 23.4929 78.0917 23.4196 78.4767 22.6724C78.5531 22.374 79.0918 21.4787 79.3233 20.9567C79.4769 20.733 79.6312 20.1362 79.6312 20.1362C79.8627 19.763 80.0163 19.2409 80.2462 18.5701C80.3242 18.1228 80.3242 17.9732 80.7093 17.0039C80.7857 16.5567 80.8628 16.3323 81.0172 15.9598C81.0172 15.885 81.1708 15.811 81.1708 15.6614L81.3243 15.5866C82.9395 15.6614 84.5562 15.6614 86.1737 15.8102L86.3273 15.885V16.0339C86.2493 16.1834 86.2493 16.3323 86.1737 16.5559C85.9422 17.078 85.7107 17.8236 85.4807 18.5701C85.0177 20.4346 83.171 25.8802 82.3244 28.5652C82.248 28.7141 82.3244 28.8637 82.2481 28.937C82.1701 29.2354 82.0165 29.3102 82.0929 29.5346H82.4016L82.5552 29.3857C82.7851 29.3102 83.0938 29.0865 83.4017 28.8637C83.5553 28.7881 83.6317 28.7148 83.7853 28.4905H84.1703C84.2483 28.4905 84.4783 29.3109 84.5554 29.5353C84.5554 29.8337 84.5554 29.8337 84.6334 29.9826C84.6334 30.2069 84.6334 30.281 84.5554 30.3558L84.4019 30.4298C83.7853 30.803 83.1702 31.2503 82.6316 31.6235C82.0165 31.9219 82.0165 31.9967 81.3235 32.3699C80.8621 32.6683 80.399 32.966 79.9383 33.1148C79.5533 33.2637 79.3233 33.2637 79.0918 33.2637C78.4775 33.3407 78.324 33.2652 78.0145 33.2652ZM91.7917 41.769L91.7137 41.6935C91.7917 41.1714 91.8673 40.7242 92.0988 40.1281C92.9454 37.2935 93.7919 34.5344 94.87 31.8486C95.1 31.3266 95.1 31.3266 95.1779 30.9526H94.9464C94.7149 31.177 94.1778 31.5502 93.7927 31.9219C92.639 32.8179 90.9459 33.6376 89.0977 32.7424C88.7142 32.5935 88.5606 32.5195 88.0975 32.1463C87.714 31.7731 87.4046 31.3258 87.0974 30.8038C86.7903 30.2817 86.5588 29.1628 86.4044 28.4164C86.4824 27.0754 86.558 25.433 87.021 23.792C87.3289 22.6739 88.1747 20.8093 89.0213 19.4661C89.7899 18.2724 90.6364 17.4519 91.946 16.7063C92.176 16.4078 93.6391 15.6622 94.1006 15.5126C94.6393 15.4378 95.1007 15.2142 95.6402 15.1394C96.4867 15.0646 97.4868 14.9157 98.487 15.5126C99.18 16.1842 99.1036 16.6315 99.4871 16.7063C99.6422 16.6315 99.6422 16.5574 99.6422 16.4078C99.8722 16.0346 99.9501 15.4378 100.179 15.2142C100.488 15.0653 103.258 15.1394 104.721 15.2142C105.029 15.2142 105.259 15.4378 105.104 15.7362L102.874 22.4495L102.565 23.4929C101.719 26.1031 100.95 28.7889 99.9501 31.3991L98.3334 36.7699C98.0255 37.5148 96.9482 41.3943 96.5639 41.9904C96.7167 41.9919 93.0218 42.0675 91.7917 41.769ZM93.0218 23.0471C93.2533 22.451 93.6384 21.8534 93.9463 21.3314C94.2542 20.8101 94.5613 20.2881 94.9464 19.7653C95.6394 19.318 96.2544 18.87 97.0246 19.0196C97.9475 19.3928 97.6396 20.8841 97.3325 22.3007C96.871 23.8676 96.3324 25.8817 95.1007 27.4471C94.2542 28.492 93.7155 28.7164 93.1777 28.8652C91.946 28.7164 92.0224 27.0754 92.0996 26.2549C92.0996 26.2549 92.176 26.1046 92.176 25.8817C92.3296 25.0613 92.7146 23.9424 93.0218 23.0471ZM105.414 31.6998C105.182 31.6998 104.182 32.2959 103.721 32.6691C103.566 32.6691 103.489 32.8179 103.336 32.8179C102.719 32.6691 102.565 31.7731 102.335 31.3258C102.335 31.1014 102.257 30.9526 102.257 30.5794C102.643 29.9833 104.644 30.3565 103.951 28.7896C103.797 26.6267 104.182 24.2408 105.104 22.2999C105.721 21.1818 106.953 19.3913 107.029 19.3913C107.414 18.7944 108.029 18.3472 108.568 17.8251C108.8 17.5267 109.107 17.3779 109.493 17.2283C110.34 16.5567 112.34 15.4378 113.571 15.1394C115.187 14.9157 116.573 14.6173 118.036 14.9905C118.959 15.2142 120.19 16.1842 120.344 17.0047C120.497 17.6755 120.344 18.2724 120.112 19.2424C119.419 21.181 119.497 21.1078 118.959 21.9282C118.344 22.7487 118.112 23.1219 116.804 24.3141C116.341 24.6873 116.034 24.9857 115.494 25.4322C114.033 26.7747 113.186 26.9991 111.725 28.044C111.647 28.044 110.8 28.4912 110.647 28.4912C109.647 29.0133 110.493 29.3872 111.032 29.5361C112.725 29.9833 115.11 28.4164 116.265 27.3731C116.341 27.2975 117.033 26.6266 117.189 26.6266C117.573 27.1487 118.189 27.8959 118.343 28.4164L118.189 28.7156C116.726 30.281 114.264 31.9975 113.186 32.4447C111.725 33.1911 109.415 33.3407 108.03 33.1911C107.029 32.892 106.182 32.2203 105.414 31.6998ZM109.954 26.5534C109.8 26.5534 109.8 26.4778 109.8 26.4045C109.954 24.3148 110.8 22.3762 112.032 20.7353C112.571 19.9148 113.647 18.4227 114.803 18.0503C115.34 17.8266 115.803 17.8267 116.265 17.9755C116.726 18.1243 116.573 19.392 115.957 20.288C114.725 22.1519 113.108 23.7928 112.493 24.4644C111.724 25.2841 110.722 26.1046 109.954 26.5534ZM55.0047 33.0423C54.3117 32.8179 53.6967 32.3707 53.0037 31.9227C52.3107 31.4006 51.9264 30.8045 51.4641 30.0589C51.387 29.9085 51.3106 29.6101 51.079 29.3124C50.9057 28.8015 50.7769 28.2774 50.694 27.7455C50.6168 27.0006 50.6168 26.7762 50.5404 26.2549V25.8062L50.3861 25.7321C50.001 25.7321 49.7702 25.881 49.3852 26.0306C48.7693 26.2549 47.9999 26.5526 47.4613 26.6266C47.3077 26.7022 46.6919 26.7755 46.5376 26.851L46.4604 26.7022C46.4604 26.2549 46.6147 26.1802 46.6911 25.9558L47.1526 24.6881C47.4605 24.2408 47.3833 24.092 47.6913 23.6432C47.9992 23.4944 48.0763 23.4944 49.0001 23.3448C49.5387 23.2707 50.3081 23.1959 50.9239 23.0464C51.0011 22.9708 51.0783 22.5243 51.0783 22.4503V22.3747C51.0783 22.1503 51.1554 22.0015 51.1554 21.8527C51.3098 21.4054 51.5405 20.8834 51.5405 20.5102C51.7713 20.2117 51.9256 19.7645 52.0792 19.4661C52.2327 19.1677 52.3099 18.8692 52.5406 18.5708C52.9257 17.8251 53.31 17.0047 53.7723 16.2582C54.003 15.885 54.2337 15.5126 54.696 14.9157C55.1575 14.3937 55.6197 13.722 55.8505 13.4236C56.0812 13.3488 56.0812 13.274 56.1584 13.2C56.4663 12.9016 56.697 12.5291 57.0821 12.2299C57.7751 11.4843 58.3901 10.7386 59.3139 9.91738C59.6218 9.54492 59.6982 9.54492 59.8525 9.54492C60.0833 9.17171 60.3912 9.02287 60.9298 8.64966C61.3779 8.30842 61.84 7.98481 62.315 7.6796C63.7766 6.56072 66.0855 5.36703 67.7786 4.91978C67.933 4.84499 69.0875 4.54656 69.7025 4.54656C70.0876 4.54656 71.7807 4.39698 72.3957 4.47177C72.6272 4.54657 72.9344 4.54656 73.3202 4.6954C73.4738 4.84498 73.4738 4.99382 73.7053 5.06861C73.7817 5.36703 73.7053 5.66545 73.7053 5.96387C73.6274 6.33709 73.3966 6.78434 73.3202 7.15756C73.1667 7.60481 72.3957 9.02211 72.0886 9.47012C71.9463 9.72521 71.7923 9.97401 71.6271 10.2158C70.9341 11.1111 70.4734 11.8567 69.7804 12.6024C69.3946 13.0497 68.7024 13.8701 68.626 13.9449C67.933 14.6906 67.0864 15.437 66.5478 16.0331C66.0855 16.6299 65.6241 17.0032 65.0082 17.5252C64.2389 18.122 63.9309 18.3457 63.238 18.9425C62.6221 19.4646 62.4686 19.4646 62.0835 19.8378C62.0063 19.8378 61.5449 20.3598 61.3141 20.4346C60.6219 20.8819 60.0061 21.3291 59.1595 21.7779C58.7744 22.0763 58.2358 22.1496 58.0051 22.4495C57.6971 22.6724 57.5436 22.7479 57.0049 22.8212C57.0049 22.8968 56.9278 23.1204 56.8506 23.1944C56.7734 23.4188 56.7734 23.4188 56.5427 23.8661C56.2348 24.611 56.3891 24.611 56.2348 25.0598C56.3119 25.7314 56.2348 26.1779 56.3883 26.8495C56.3883 26.9236 56.4655 27.5944 56.5419 27.5944V27.67C56.6191 28.192 56.6962 28.6393 57.3113 28.8637H57.6964C58.6965 28.192 58.7737 27.5944 59.0816 26.5511C59.1587 25.4315 59.3123 23.9409 59.0044 22.896C59.0044 22.8205 58.9272 22.5228 58.9272 22.4488V22.3732C58.9272 22.2977 59.2351 22.1488 59.543 22C59.7738 21.926 60.0817 21.7016 60.3896 21.6283C61.2362 21.2551 62.4678 20.5087 63.16 20.2102C63.2372 20.2102 63.2372 20.1354 63.4679 20.1354L63.5451 20.2102C63.6223 20.4339 63.6987 20.5834 63.853 20.8819C63.9302 21.2551 63.9302 21.5535 64.0066 21.7779C64.1609 22.6724 64.0837 23.6417 64.0837 24.4622C64.0066 25.4315 63.6986 26.5519 63.4679 27.4456C63.0828 28.5653 62.467 29.7582 61.6976 30.7275C61.159 31.5495 60.6967 31.9967 60.0817 32.3699C59.773 32.5928 59.4659 32.7416 59.3123 32.8172C58.9272 33.1156 58.6193 33.1156 58.3886 33.1904C57.9271 33.1904 57.3877 33.3392 56.927 33.3392C56.2356 33.1919 55.6969 33.1919 55.0047 33.0423ZM58.4673 19.3172V19.0936C58.6217 18.4968 59.006 17.8999 59.3139 17.3779C60.3912 15.9606 61.5456 14.3944 62.6229 13.1267C63.5466 12.0078 64.7011 10.6653 65.4705 10.2181C66.1627 9.77006 66.9321 9.24801 67.7023 8.87555C67.8566 8.72672 68.1645 8.72672 68.3181 8.65192C68.4716 8.50233 68.5488 8.50234 68.7032 8.4283C68.7032 8.4283 68.7803 8.57713 68.9339 8.57713V8.65192C68.9339 8.87555 68.9339 8.87555 68.7795 9.09918C68.626 9.69602 68.1637 10.3677 67.8558 10.9637C67.4707 11.337 67.0093 12.0826 66.7785 12.2315C66.5478 12.7535 65.932 13.2756 65.4705 13.7236C65.2398 14.022 64.7011 14.6936 64.5468 14.8424C63.9309 15.2157 63.2387 15.8865 62.6229 16.3346C61.7764 17.0062 60.9298 17.6023 60.0061 18.2739C59.621 18.6471 59.2367 18.9455 58.698 19.1692C58.6988 19.1684 58.5445 19.3172 58.4673 19.3172ZM122.19 19.6905C122.268 19.5416 122.498 19.2432 122.806 18.9448C123.499 17.8259 124.499 16.9306 125.653 16.0354C125.731 15.9606 125.807 15.8865 126.038 15.8865C126.038 15.8865 126.115 15.8117 126.346 15.8117H126.5C127.578 15.6629 130.732 15.4385 131.579 15.5133C131.657 15.8117 131.271 16.185 131.04 16.4086C130.04 17.0795 129.194 17.9747 128.347 18.87C126.347 20.8841 124.269 25.955 125.269 28.2676C125.5 29.0881 126.347 29.7597 127.347 29.5368C127.809 29.4613 128.117 29.388 128.579 29.0881C129.272 28.6408 130.657 26.5534 130.733 26.1794C131.503 24.8369 132.888 21.2566 132.658 19.8393C132.658 19.6905 132.426 19.5409 132.426 19.392C132.426 19.3172 132.273 19.3172 132.196 19.2432C131.272 19.318 129.965 20.8841 129.655 21.6306C129.579 21.7794 129.579 21.8534 129.502 21.929H129.348C128.887 21.6306 128.425 21.1085 128.118 20.6605V20.288C129.194 18.8707 130.348 17.3786 131.888 16.2598C132.273 15.8125 134.044 14.9172 134.659 14.7677C135.352 14.6929 136.198 14.9172 136.737 15.4393C138.045 16.8558 137.43 19.6905 137.045 21.4062C136.813 22.5999 136.584 23.1219 136.198 24.0164C135.505 25.5833 135.43 25.7321 135.12 26.329C133.581 28.9392 130.658 32.1471 127.579 32.9675C126.116 33.2659 124.885 33.4148 123.501 33.1919C122.191 32.6699 120.884 31.4006 120.267 30.2817C120.041 29.7048 119.887 29.1041 119.806 28.492C119.576 28.0447 119.73 25.7329 119.884 25.433C119.884 25.0613 120.345 23.1959 120.577 22.8983C120.882 22.1511 121.728 20.2873 122.19 19.6905ZM43.6144 29.3872C44.7688 29.3872 45.7697 30.3565 45.8461 31.5502C45.8461 32.6683 44.7688 33.7117 43.6144 33.7117C42.4599 33.7117 41.3826 32.6683 41.3826 31.5502C41.3826 30.3573 42.4599 29.3872 43.6144 29.3872Z" fill="#E31235"/>
</svg>
