<svg width="122" height="47" viewBox="0 0 122 47" fill="none" xmlns="http://www.w3.org/2000/svg">
<path d="M46.8084 15.5887C38.2425 15.5887 31.2928 22.4055 31.2928 30.8076C31.2928 39.2096 38.2425 46.0264 46.8084 46.0264C55.3743 46.0264 62.324 39.2096 62.324 30.8076C62.324 22.3791 55.3743 15.5887 46.8084 15.5887ZM46.8084 39.0511C42.1753 39.0511 38.4041 35.3521 38.4041 30.8076C38.4041 26.2631 42.1753 22.564 46.8084 22.564C51.4415 22.564 55.2127 26.2631 55.2127 30.8076C55.2127 35.3521 51.4415 39.0511 46.8084 39.0511ZM121.477 29.8828C120.992 21.9035 114.285 15.5887 106.015 15.5887C97.4495 15.5887 90.4998 22.4055 90.4998 30.8076C90.4998 39.2096 97.4495 46.0264 106.015 46.0264C109.086 46.0264 111.968 45.1281 114.366 43.6221V45.2866H121.531V29.9092H121.477V29.8828ZM114.366 31.7059C113.908 35.8277 110.352 39.0511 106.015 39.0511C101.382 39.0511 97.6111 35.3521 97.6111 30.8076C97.6111 26.2631 101.382 22.564 106.015 22.564C110.352 22.564 113.908 25.7875 114.366 29.9092V31.7059ZM79.6443 45.2602H86.8095V0H79.6443V45.2602ZM65.7988 45.2602H72.964V0H65.7988V45.2602V45.2602ZM2.47045 15.8794V22.9075H17.151L0.531006 45.3395H30.35V38.3113H14.6997L30.35 15.8794H2.47045V15.8794Z" fill="#FF4338"/>
</svg>
