<svg width="128" height="32" viewBox="0 0 128 32" fill="none" xmlns="http://www.w3.org/2000/svg">
<path fill-rule="evenodd" clip-rule="evenodd" d="M127.531 0.781791C127.531 0.781791 125.16 0.497437 122.358 0.497437C119.628 0.497437 117.329 0.781791 117.329 0.781791V9.66789H127.531V0.781791Z" fill="#E4003E"/>
<path fill-rule="evenodd" clip-rule="evenodd" d="M127.531 21.7533H117.329V30.7816C117.329 30.7816 120.203 31.0659 122.502 31.0659C124.801 31.0659 127.531 30.7105 127.531 30.7105V21.7533Z" fill="#E4003E"/>
<path fill-rule="evenodd" clip-rule="evenodd" d="M111.221 0.78125H98.6472L89.8819 11.6582H85.7866V0.78125H74.9375V30.8528H85.7866V19.5494H89.7382L98.5756 30.8528H112.011L98.863 14.8573L111.221 0.78125Z" fill="#242265"/>
<path fill-rule="evenodd" clip-rule="evenodd" d="M34.2715 0.78125H0V30.8528H10.9928V9.31221H23.2787V30.8528H34.2715V0.78125Z" fill="#242265"/>
<path fill-rule="evenodd" clip-rule="evenodd" d="M39.5883 8.74422L38.0077 0.782007C38.0077 0.782007 48.2819 0 54.6764 0C61.0709 0 68.7587 0.782007 68.7587 0.782007C68.7587 0.782007 71.1297 6.89586 71.1297 15.4979C71.1297 24.0999 68.6868 30.8537 68.6868 30.8537C68.6868 30.8537 61.3583 31.6356 54.6046 31.6356C47.8508 31.6356 38.0077 30.8537 38.0077 30.8537L39.5883 22.8914C39.5883 22.8914 46.4858 23.3891 52.3773 23.3891C58.2689 23.3891 60.5679 22.8914 60.5679 22.8914C60.5679 22.8914 60.8554 21.3985 60.9991 19.6922H46.9168V12.0145H61.0709C60.9272 10.0239 60.6399 8.81532 60.6399 8.81532C60.6399 8.81532 55.8259 8.31768 51.7306 8.31768C47.5635 8.24659 39.5883 8.74422 39.5883 8.74422Z" fill="#242265"/>
</svg>
