<svg width="130" height="36" viewBox="0 0 130 36" fill="none" xmlns="http://www.w3.org/2000/svg">
<path fill-rule="evenodd" clip-rule="evenodd" d="M20.3274 27.2614H14.7099C5.94672 27.2614 12.3132 8.70125 19.6907 8.70125H28.5664C29.9894 8.70125 32.4985 8.9627 33.7344 5.45228L35.6443 0H23.4731C16.8821 0 11.7514 2.31536 8.0439 6.19918C1.64001 12.8465 -0.532071 23.2282 1.00337 28.195C2.4639 32.7884 6.43357 35.8133 12.6502 35.888L17.4812 35.9253H23.4357L24.8963 31.556C25.9823 28.4565 23.5481 27.2614 20.3274 27.2614ZM88.7106 19.5684L90.5453 13.6307H70.9593C67.7013 13.6307 66.2407 14.527 65.679 16.3942L63.8439 22.332H83.4301C86.6882 22.332 88.1488 21.4357 88.7106 19.5684ZM60.9229 30.0249L59.0878 35.9626H78.674C81.8947 35.9626 83.3927 35.0664 83.9544 33.1992L85.7895 27.2614H66.2033C62.9826 27.2614 61.522 28.1577 60.9229 30.0249ZM93.2793 5.97511L95.1148 0.0373439H75.5282C72.2702 0.0373439 70.8096 0.933608 70.2479 2.80083L68.4128 8.7386H87.999C91.2201 8.7386 92.68 7.84233 93.2793 5.97511ZM63.6942 7.17013C62.8702 1.64316 59.9117 0.0373439 52.7213 0.0373439H39.614L31.9743 22.332H36.8053C39.6889 22.332 41.1494 22.3693 42.6849 18.2614L45.8681 8.70125H50.7365C54.8935 8.70125 53.9572 13.8922 51.86 18.9336C49.9876 23.3776 46.7294 27.2988 42.7972 27.2988H34.6707C31.4125 27.2988 29.9145 28.195 29.3153 30.0623L27.293 36H33.2476L39.0897 35.9626C44.2577 35.9253 48.4895 35.5519 53.4329 31.1079C58.6759 26.3652 64.7427 14.1909 63.6942 7.17013ZM129.531 0H118.184L107.51 11.3153C106.274 12.6224 105.001 13.9294 103.765 15.4606H103.653L108.97 0H99.721L87.25 35.9626H96.5001L100.469 24.6473L104.589 21.1743L107.847 31.4067C108.858 34.5809 109.907 35.9626 112.154 35.9626H119.232L111.967 15.8714L129.531 0Z" fill="#00B43C"/>
</svg>
