<svg width="121" height="31" viewBox="0 0 121 31" fill="none" xmlns="http://www.w3.org/2000/svg">
<path fill-rule="evenodd" clip-rule="evenodd" d="M31.5558 15.6356C31.5584 14.6457 31.3619 13.665 30.9776 12.7504C30.5934 11.8359 30.0291 11.0055 29.3173 10.3075C28.6095 9.6055 27.7675 9.04895 26.8402 8.67001C25.9128 8.29107 24.9184 8.09727 23.9146 8.09982H7.56956V23.1714H23.9146C24.9186 23.174 25.9131 22.9803 26.8407 22.6013C27.7682 22.2224 28.6103 21.6658 29.3183 20.9638C30.0299 20.2658 30.594 19.4356 30.9781 18.5212C31.3621 17.6068 31.5585 16.6264 31.5558 15.6366V15.6356ZM39.1253 15.6356C39.1253 23.9192 32.3151 30.6356 23.9146 30.6356H0V0.63562H23.9146C32.3151 0.63562 39.1253 7.35101 39.1253 15.6356ZM118.223 14.6561C117.343 13.7867 116.298 13.0972 115.148 12.6273C113.997 12.1573 112.764 11.9161 111.519 11.9174V11.9294H91.3943C90.8773 11.9288 90.3816 11.7261 90.016 11.3655C89.6504 11.0049 89.4447 10.5161 89.4442 10.0061C89.4442 8.94608 90.3184 8.08292 91.3943 8.08292H115.246C116.246 8.08292 117.204 7.69149 117.91 6.99476C118.617 6.29803 119.014 5.35305 119.014 4.36772C119.014 3.38239 118.617 2.43742 117.91 1.74068C117.204 1.04395 116.246 0.652525 115.246 0.652525H91.3943C90.1157 0.652525 88.8735 0.901133 87.7008 1.3894C86.5745 1.85842 85.5513 2.5386 84.6879 3.39218C83.8224 4.24411 83.1327 5.25354 82.6571 6.36454C82.1622 7.51648 81.9081 8.75507 81.9099 10.0061C81.9099 11.2671 82.162 12.4922 82.6571 13.6478C83.1325 14.7589 83.8222 15.7683 84.6879 16.6201C85.5675 17.4901 86.6129 18.18 87.7638 18.6502C88.9147 19.1203 90.1485 19.3615 91.3943 19.3598H111.519V19.3478C112.593 19.3478 113.466 20.209 113.466 21.2671C113.465 21.7764 113.26 22.2647 112.895 22.625C112.53 22.9852 112.035 23.1878 111.519 23.1883H85.6771C84.678 23.1883 83.7198 23.5797 83.0133 24.2765C82.3068 24.9732 81.9099 25.9182 81.9099 26.9035C81.9099 27.8889 82.3068 28.8338 83.0133 29.5306C83.7198 30.2273 84.678 30.6187 85.6771 30.6187H111.519C112.764 30.6202 113.997 30.379 115.148 29.909C116.298 29.4391 117.343 28.7495 118.223 27.8801C119.088 27.0284 119.777 26.0193 120.253 24.9087C120.748 23.7572 121.002 22.5189 121 21.2681C121.002 20.0399 120.757 18.8235 120.28 17.6888C119.804 16.5541 119.105 15.5235 118.223 14.6561V14.6561ZM72.475 0.63562H80.0092V26.9035C80.0091 27.6383 79.7881 28.3566 79.3741 28.9675C78.9601 29.5784 78.3717 30.0545 77.6833 30.3356C76.9949 30.6167 76.2375 30.6902 75.5068 30.5468C74.776 30.4033 74.1049 30.0494 73.5781 29.5298L48.4534 11.6201V30.6356H40.9182V4.36772C40.9183 3.63294 41.1393 2.91468 41.5533 2.30378C41.9673 1.69288 42.5557 1.21678 43.2441 0.935664C43.9324 0.654552 44.6899 0.581062 45.4206 0.724487C46.1513 0.867911 46.8225 1.22181 47.3493 1.74143L72.4739 19.6511V0.63562H72.475Z" fill="#FC8507"/>
</svg>
