<svg width="49" height="60" viewBox="0 0 49 60" fill="none" xmlns="http://www.w3.org/2000/svg">
<path d="M7.8258 11.5459H13.5449C14.6495 11.5459 15.5449 12.4413 15.5449 13.5459V49.8104C15.5449 50.9149 16.4404 51.8104 17.5449 51.8104H32.1709C32.9651 51.8104 33.6089 52.4542 33.6089 53.2484C33.6089 54.8368 32.3213 56.1244 30.7329 56.1244H30.3503C29.5561 56.1244 28.9123 56.7682 28.9123 57.5624C28.9123 58.3566 28.2684 59.0004 27.4743 59.0004H5.09375C2.88461 59.0004 1.09375 57.2096 1.09375 55.0004V17.1409C1.09375 16.0364 1.98918 15.1409 3.09375 15.1409H4.23076C4.89259 15.1409 5.4291 14.6044 5.4291 13.9426C5.4291 12.6189 6.50214 11.5459 7.8258 11.5459Z" fill="#4969B5"/>
<path d="M33.6095 51.2331V51.4853C33.6095 53.6944 31.8186 55.4853 29.6095 55.4853H9.48828C7.27914 55.4853 5.48828 53.6944 5.48828 51.4853V15.5459C5.48828 13.3368 7.27914 11.5459 9.48828 11.5459H15.5831" stroke="#D5DAE3" stroke-width="2" stroke-linecap="round"/>
<path d="M29.215 56.1651V56.1651C29.215 57.7308 27.9458 58.9999 26.3802 58.9999H5.09375C2.88461 58.9999 1.09375 57.2091 1.09375 54.9999V19.0605C1.09375 16.8514 2.88461 15.0605 5.09375 15.0605H5.42009" stroke="#D5DAE3" stroke-width="2" stroke-linecap="round"/>
<rect width="32.4906" height="50.8399" transform="translate(15.4141 1)" fill="#313A4E"/>
<path d="M47.9051 8.87654L40.0285 1L39.7091 4.5144C39.4961 6.85687 41.3405 8.87654 43.6926 8.87654H47.9051Z" fill="#4969B5"/>
<path d="M20.7844 6.96188H32.5992M20.7844 10.3096H29.019M20.7844 26.1629H41.9079M20.7844 30.5413H41.9079M20.7844 34.9197H28.303M39.3122 1.717V5.23552C39.3122 7.44466 41.1031 9.23552 43.3122 9.23552H47.1888M37.1641 42.1738L36.594 46.4494C36.5371 46.8756 37.0092 47.1701 37.3669 46.9315L38.5608 46.1356C39.2326 45.6877 40.1078 45.6877 40.7796 46.1356L41.9735 46.9315C42.3313 47.1701 42.8033 46.8757 42.7465 46.4494L42.1764 42.1738M41.0616 1.70981L47.0505 7.69873C47.4256 8.0738 47.6363 8.58251 47.6363 9.11294V47.8404C47.6363 50.0495 45.8454 51.8404 43.6363 51.8404H19.4141C17.2049 51.8404 15.4141 50.0495 15.4141 47.8404V5.12402C15.4141 2.91488 17.2049 1.12402 19.4141 1.12402H39.6474C40.1778 1.12402 40.6865 1.33474 41.0616 1.70981Z" stroke="#D5DAE3" stroke-width="2" stroke-linecap="round"/>
<circle cx="39.6699" cy="39.3096" r="3.65432" fill="#C43742" stroke="#D5DAE3" stroke-width="2"/>
</svg>
