<svg width="77" height="59" viewBox="0 0 77 59" fill="none" xmlns="http://www.w3.org/2000/svg">
<path d="M61.9395 4.04059L5.85799 17.8528C4.78546 18.1169 4.13153 19.2002 4.39739 20.2723L12.6362 53.4964C12.902 54.5684 13.987 55.2234 15.0595 54.9593L71.141 41.1471C72.2136 40.8829 72.8675 39.7997 72.6016 38.7276L64.3629 5.50352C64.097 4.43142 63.012 3.77645 61.9395 4.04059Z" fill="#A5BEF7" stroke="#A5BEF7" stroke-width="2"/>
<path d="M67.3183 12.4121H9.54883C8.44426 12.4121 7.54883 13.3075 7.54883 14.4121V48.6349C7.54883 49.7395 8.44426 50.6349 9.54883 50.6349H67.3183C68.4229 50.6349 69.3183 49.7395 69.3183 48.6349V14.4121C69.3183 13.3075 68.4229 12.4121 67.3183 12.4121Z" fill="#3C4351"/>
<path d="M14.1798 38.0268C13.6275 38.0268 13.1798 38.4745 13.1798 39.0268C13.1798 39.5791 13.6275 40.0268 14.1798 40.0268V38.0268ZM43.2478 40.0268C43.8001 40.0268 44.2478 39.5791 44.2478 39.0268C44.2478 38.4745 43.8001 38.0268 43.2478 38.0268V40.0268ZM14.1798 42.855C13.6275 42.855 13.1798 43.3027 13.1798 43.855C13.1798 44.4072 13.6275 44.8549 14.1798 44.8549V42.855ZM26.6952 44.8549C27.2475 44.8549 27.6952 44.4072 27.6952 43.855C27.6952 43.3027 27.2475 42.855 26.6952 42.855V44.8549ZM9.54883 13.4121H67.3183V11.4121H9.54883V13.4121ZM68.3183 14.4121V48.6349H70.3183V14.4121H68.3183ZM67.3183 49.6349H9.54883V51.6349H67.3183V49.6349ZM8.54883 48.6349V14.4121H6.54883V48.6349H8.54883ZM15.1798 29.2833H21.4468V27.2833H15.1798V29.2833ZM21.4468 29.2833H24.8878V27.2833H21.4468V29.2833ZM26.8878 27.2833V19.9095H24.8878V27.2833H26.8878ZM24.8878 17.9095H21.4468V19.9095H24.8878V17.9095ZM21.4468 17.9095H15.1798V19.9095H21.4468V17.9095ZM20.4468 18.9095V23.3952H22.4468V18.9095H20.4468ZM20.4468 23.3952V28.2833H22.4468V23.3952H20.4468ZM21.4468 22.3952H14.1798V24.3952H21.4468V22.3952ZM13.1798 19.9095V23.3952H15.1798V19.9095H13.1798ZM13.1798 23.3952V27.2833H15.1798V23.3952H13.1798ZM14.1798 40.0268H43.2478V38.0268H14.1798V40.0268ZM14.1798 44.8549H26.6952V42.855H14.1798V44.8549ZM26.8878 19.9095C26.8878 18.805 25.9923 17.9095 24.8878 17.9095V19.9095V19.9095H26.8878ZM24.8878 29.2833C25.9923 29.2833 26.8878 28.3878 26.8878 27.2833H24.8878V29.2833ZM15.1798 27.2833H13.1798C13.1798 28.3878 14.0752 29.2833 15.1798 29.2833V27.2833ZM15.1798 17.9095C14.0752 17.9095 13.1798 18.805 13.1798 19.9095H15.1798H15.1798V17.9095ZM9.54883 49.6349C8.99654 49.6349 8.54883 49.1872 8.54883 48.6349H6.54883C6.54883 50.2918 7.89197 51.6349 9.54883 51.6349V49.6349ZM68.3183 48.6349C68.3183 49.1872 67.8706 49.6349 67.3183 49.6349V51.6349C68.9752 51.6349 70.3183 50.2918 70.3183 48.6349H68.3183ZM67.3183 13.4121C67.8706 13.4121 68.3183 13.8598 68.3183 14.4121H70.3183C70.3183 12.7553 68.9752 11.4121 67.3183 11.4121V13.4121ZM9.54883 11.4121C7.89197 11.4121 6.54883 12.7553 6.54883 14.4121H8.54883C8.54883 13.8598 8.99655 13.4121 9.54883 13.4121V11.4121Z" fill="#D5DAE3"/>
<path d="M67.3203 12.4121H9.55078C8.44621 12.4121 7.55078 13.3075 7.55078 14.4121V48.6349C7.55078 49.7395 8.44621 50.6349 9.55078 50.6349H67.3203C68.4248 50.6349 69.3203 49.7395 69.3203 48.6349V14.4121C69.3203 13.3075 68.4248 12.4121 67.3203 12.4121Z" fill="#313A4E"/>
<path d="M14.1818 38.0268C13.6295 38.0268 13.1818 38.4745 13.1818 39.0268C13.1818 39.5791 13.6295 40.0268 14.1818 40.0268V38.0268ZM43.2498 40.0268C43.802 40.0268 44.2498 39.5791 44.2498 39.0268C44.2498 38.4745 43.802 38.0268 43.2498 38.0268V40.0268ZM14.1818 42.855C13.6295 42.855 13.1818 43.3027 13.1818 43.855C13.1818 44.4072 13.6295 44.8549 14.1818 44.8549V42.855ZM26.6972 44.8549C27.2494 44.8549 27.6972 44.4072 27.6972 43.855C27.6972 43.3027 27.2494 42.855 26.6972 42.855V44.8549ZM9.55078 13.4121H67.3203V11.4121H9.55078V13.4121ZM68.3203 14.4121V48.6349H70.3203V14.4121H68.3203ZM67.3203 49.6349H9.55078V51.6349H67.3203V49.6349ZM8.55078 48.6349V14.4121H6.55078V48.6349H8.55078ZM15.1818 29.2833H21.4488V27.2833H15.1818V29.2833ZM21.4488 29.2833H24.8897V27.2833H21.4488V29.2833ZM26.8897 27.2833V19.9095H24.8897V27.2833H26.8897ZM24.8897 17.9095H21.4488V19.9095H24.8897V17.9095ZM21.4488 17.9095H15.1818V19.9095H21.4488V17.9095ZM20.4488 18.9095V23.3952H22.4488V18.9095H20.4488ZM20.4488 23.3952V28.2833H22.4488V23.3952H20.4488ZM21.4488 22.3952H14.1818V24.3952H21.4488V22.3952ZM13.1818 19.9095V23.3952H15.1818V19.9095H13.1818ZM13.1818 23.3952V27.2833H15.1818V23.3952H13.1818ZM14.1818 40.0268H43.2498V38.0268H14.1818V40.0268ZM14.1818 44.8549H26.6972V42.855H14.1818V44.8549ZM26.8897 19.9095C26.8897 18.805 25.9943 17.9095 24.8897 17.9095V19.9095V19.9095H26.8897ZM24.8897 29.2833C25.9943 29.2833 26.8897 28.3878 26.8897 27.2833H24.8897V29.2833ZM15.1818 27.2833H13.1818C13.1818 28.3878 14.0772 29.2833 15.1818 29.2833V27.2833ZM15.1818 17.9095C14.0772 17.9095 13.1818 18.805 13.1818 19.9095H15.1818H15.1818V17.9095ZM9.55078 49.6349C8.9985 49.6349 8.55078 49.1872 8.55078 48.6349H6.55078C6.55078 50.2918 7.89393 51.6349 9.55078 51.6349V49.6349ZM68.3203 48.6349C68.3203 49.1872 67.8726 49.6349 67.3203 49.6349V51.6349C68.9771 51.6349 70.3203 50.2918 70.3203 48.6349H68.3203ZM67.3203 13.4121C67.8726 13.4121 68.3203 13.8598 68.3203 14.4121H70.3203C70.3203 12.7553 68.9771 11.4121 67.3203 11.4121V13.4121ZM9.55078 11.4121C7.89393 11.4121 6.55078 12.7553 6.55078 14.4121H8.55078C8.55078 13.8598 8.9985 13.4121 9.55078 13.4121V11.4121Z" fill="#E8EBF2"/>
<path d="M21.4486 28.2849H15.1816C14.6294 28.2849 14.1816 27.8372 14.1816 27.2849V23.3968V19.9111C14.1816 19.3588 14.6294 18.9111 15.1816 18.9111H21.4486H24.8896C25.4419 18.9111 25.8896 19.3588 25.8896 19.9111V27.2849C25.8896 27.8372 25.4419 28.2849 24.8896 28.2849H21.4486Z" fill="#C43742"/>
<path d="M21.4486 18.9111V23.3968M21.4486 28.2849V23.3968M21.4486 23.3968H14.1816M14.1816 23.3968V19.9111C14.1816 19.3588 14.6294 18.9111 15.1816 18.9111H24.8896C25.4419 18.9111 25.8896 19.3588 25.8896 19.9111V27.2849C25.8896 27.8372 25.4419 28.2849 24.8896 28.2849H15.1816C14.6294 28.2849 14.1816 27.8372 14.1816 27.2849V23.3968Z" stroke="#E8EBF2" stroke-width="2"/>
</svg>
