<svg width="65" height="51" viewBox="0 0 65 51" fill="none" xmlns="http://www.w3.org/2000/svg">
<path d="M63.6875 3.89648V37.5393V43.6148V47.6903C63.6875 48.7949 62.7921 49.6903 61.6875 49.6903H39.7906H25.6144H3.3125C2.20793 49.6903 1.3125 48.7949 1.3125 47.6903L1.3125 43.6148L1.3125 37.5393L1.3125 3.89649C1.3125 2.79192 2.20793 1.89648 3.3125 1.89648L25.6144 1.89648L39.7906 1.89648L61.6875 1.89648C62.7921 1.89648 63.6875 2.79191 63.6875 3.89648Z" fill="#313A4E"/>
<path d="M49.3183 7.96777H41.7913C40.6867 7.96777 39.7913 8.86321 39.7913 9.96777V30.2697C39.7913 31.3743 40.6867 32.2697 41.7913 32.2697H49.2875C50.3295 32.2697 51.2207 31.462 51.5989 30.4911C51.9444 29.6041 52.5402 28.4917 53.5624 27.4093C55.4335 25.4281 56.3561 26.065 57.4002 25.476C57.845 25.225 58.0177 24.6946 58.0177 24.184V16.9224C58.0177 15.9581 57.3282 15.1319 56.4072 14.846C55.1897 14.468 53.5894 13.8154 52.7523 12.8282C52.0901 12.0472 51.6813 10.7926 51.4401 9.75367C51.2073 8.75119 50.3474 7.96777 49.3183 7.96777Z" fill="#A5BEF7"/>
<path d="M15.6822 32.2697H23.6151C24.7197 32.2697 25.6151 31.3743 25.6151 30.2697V9.96777C25.6151 8.86321 24.7197 7.96777 23.6151 7.96777L15.4307 7.96777C14.513 7.96777 13.7254 8.59594 13.4616 9.47495C13.0874 10.7218 12.5847 11.995 11.844 12.8282C11.1242 13.6379 9.81669 14.1658 8.51048 14.7396C7.81689 15.0442 7.38867 15.7369 7.38867 16.4944V23.3903C7.38867 24.3206 8.0323 25.1265 8.90847 25.4392C10.0241 25.8374 11.4747 26.4942 12.2491 27.4093C12.9106 28.1911 13.3194 29.446 13.5608 30.4849C13.7937 31.4869 14.6534 32.2697 15.6822 32.2697Z" fill="#A5BEF7"/>
<circle cx="26.7989" cy="20.3301" r="6.48052" fill="#C43742"/>
<circle cx="38.9493" cy="20.3301" r="6.48052" fill="#C43742"/>
<rect x="25.9883" y="1.69824" width="14.5812" height="48.6039" fill="#4969B5"/>
<path d="M63.6875 37.5393V3.89648C63.6875 2.79191 62.7921 1.89648 61.6875 1.89648L39.7906 1.89648M63.6875 37.5393H39.7906M63.6875 37.5393V43.6148M1.3125 37.5393L1.3125 3.89649C1.3125 2.79192 2.20793 1.89648 3.3125 1.89648L25.6144 1.89648M1.3125 37.5393H25.6144M1.3125 37.5393L1.3125 43.6148M25.6144 37.5393V43.6148M25.6144 37.5393H32.7025M25.6144 37.5393V32.2739M25.6144 49.6903H3.3125C2.20793 49.6903 1.3125 48.7949 1.3125 47.6903L1.3125 43.6148M25.6144 49.6903H39.7906M25.6144 49.6903V43.6148M39.7906 37.5393V43.6148M39.7906 37.5393H32.7025M39.7906 37.5393V32.2739M39.7906 49.6903H61.6875C62.7921 49.6903 63.6875 48.7949 63.6875 47.6903V43.6148M39.7906 49.6903V43.6148M39.7906 43.6148H63.6875M25.6144 43.6148H1.3125M25.6144 1.89648L39.7906 1.89648M25.6144 1.89648V7.97197M39.7906 1.89648V7.97197M32.7025 37.5393V23.7682M39.7906 7.97197L49.3176 7.97197C50.3467 7.97197 51.2066 8.75538 51.4394 9.75787C51.6807 10.7968 52.0894 12.0514 52.7516 12.8324C53.5887 13.8196 55.189 14.4722 56.4065 14.8502C57.3275 15.1361 58.017 15.9623 58.017 16.9266V24.1882C58.017 24.6988 57.8443 25.2292 57.3995 25.4801C56.3554 26.0692 55.4328 25.4323 53.5617 27.4135C52.5395 28.4959 51.9437 29.6083 51.5982 30.4953C51.2201 31.4662 50.3288 32.2739 49.2869 32.2739H39.7906M39.7906 7.97197V32.2739M25.6144 32.2739H15.6815C14.6527 32.2739 13.7931 31.4911 13.5601 30.4891C13.3187 29.4502 12.9099 28.1953 12.2484 27.4135C11.474 26.4984 10.0234 25.8416 8.90779 25.4434C8.03161 25.1307 7.38799 24.3248 7.38799 23.3945L7.38799 16.4986C7.38799 15.7411 7.81621 15.0484 8.50979 14.7438C9.81601 14.17 11.1236 13.6421 11.8433 12.8324C12.584 11.9992 13.0867 10.726 13.4609 9.47915C13.7247 8.60014 14.5123 7.97197 15.4301 7.97197L25.6144 7.97197M25.6144 32.2739V7.97197" stroke="#D5DAE3" stroke-width="2" stroke-linecap="round"/>
</svg>
