<svg width="32" height="32" viewBox="0 0 32 32" fill="none" xmlns="http://www.w3.org/2000/svg">
<g clip-path="url(#clip0_288_14130)">
<path d="M29.3348 8.79968C29.3277 14.2433 27.1621 19.4619 23.3129 23.3111C19.4637 27.1604 14.2451 29.326 8.80145 29.333C7.17479 29.333 5.61476 28.6868 4.46453 27.5366C3.31431 26.3864 2.66812 24.8263 2.66812 23.1997C2.6655 22.8552 2.69676 22.5113 2.76145 22.173C2.80986 21.8459 2.89024 21.5244 3.00145 21.213C3.07829 20.994 3.21097 20.7989 3.38635 20.6469C3.56174 20.4949 3.77376 20.3913 4.00145 20.3463L12.0015 18.5197C12.2186 18.4704 12.4446 18.4764 12.6589 18.5369C12.8732 18.5975 13.0689 18.7107 13.2281 18.8663C13.4148 19.0397 13.4281 19.053 14.2815 20.693C17.1626 19.3797 19.4763 17.0754 20.8015 14.1997C19.1481 13.333 19.1348 13.3197 18.9615 13.133C18.8058 12.9738 18.6926 12.7781 18.632 12.5638C18.5715 12.3495 18.5656 12.1235 18.6148 11.9063L20.4415 3.90634C20.4926 3.68594 20.599 3.48217 20.7506 3.31423C20.9022 3.14628 21.0941 3.01968 21.3081 2.94634C21.6246 2.83381 21.9503 2.74905 22.2815 2.69301C22.6166 2.63935 22.9554 2.6126 23.2948 2.61301C24.9145 2.6376 26.4587 3.30195 27.5903 4.46105C28.7219 5.62014 29.3491 7.17984 29.3348 8.79968ZM5.33479 23.1997C5.3383 24.118 5.70466 24.9977 6.35403 25.6471C7.0034 26.2965 7.88312 26.6628 8.80145 26.6663C13.5389 26.6628 18.0813 24.7793 21.4312 21.4294C24.7811 18.0795 26.6646 13.5371 26.6681 8.79968C26.6646 7.88134 26.2982 7.00162 25.6489 6.35225C24.9995 5.70289 24.1198 5.33652 23.2015 5.33301C23.0548 5.33301 22.9081 5.33301 22.7615 5.33301L21.3348 11.5197L22.0681 11.9063C23.2281 12.5063 24.0681 12.9463 23.6148 14.0663C22.8239 16.2758 21.5508 18.2814 19.888 19.9374C18.2251 21.5933 16.2142 22.858 14.0015 23.6397C12.9615 24.1197 12.4815 23.213 11.8815 22.0663L11.5215 21.333L5.33479 22.7597L5.33479 23.1997Z" fill="#A5BEF7"/>
</g>
<defs>
<clipPath id="clip0_288_14130">
<rect width="32" height="32" fill="white" transform="translate(0 32) rotate(-90)"/>
</clipPath>
</defs>
</svg>
