<svg width="20" height="21" viewBox="0 0 20 21" fill="none" xmlns="http://www.w3.org/2000/svg">
<path d="M7.44575e-06 5.6C0.00529848 9.68271 1.6295 13.5967 4.51641 16.4836C7.40332 19.3705 11.3173 20.9947 15.4 21C16.62 21 17.79 20.5154 18.6527 19.6527C19.5154 18.79 20 17.62 20 16.4C20.002 16.1417 19.9785 15.8838 19.93 15.63C19.8937 15.3847 19.8334 15.1435 19.75 14.91C19.6924 14.7458 19.5929 14.5994 19.4613 14.4854C19.3298 14.3714 19.1708 14.2937 19 14.26L13 12.89C12.8371 12.8531 12.6676 12.8575 12.5069 12.9029C12.3462 12.9484 12.1995 13.0333 12.08 13.15C11.94 13.28 11.93 13.29 11.29 14.52C9.12915 13.535 7.39385 11.8068 6.40001 9.65C7.64001 9 7.65001 8.99 7.78001 8.85C7.89672 8.73056 7.98166 8.58379 8.02707 8.42308C8.07249 8.26238 8.07693 8.09286 8.04001 7.93L6.67001 1.93C6.63165 1.7647 6.55186 1.61187 6.43815 1.48591C6.32444 1.35995 6.18054 1.265 6.02001 1.21C5.78265 1.1256 5.53839 1.06203 5.29001 1.02C5.03868 0.979756 4.78454 0.95969 4.53001 0.959999C3.31523 0.97844 2.15707 1.47671 1.30836 2.34603C0.459644 3.21535 -0.0106966 4.38513 7.44575e-06 5.6ZM18 16.4C17.9974 17.0888 17.7226 17.7485 17.2356 18.2356C16.7486 18.7226 16.0888 18.9974 15.4 19C11.8469 18.9974 8.44011 17.5847 5.9277 15.0723C3.41529 12.5599 2.00266 9.15309 2.00001 5.6C2.00264 4.91125 2.27742 4.25146 2.76444 3.76443C3.25146 3.27741 3.91126 3.00263 4.60001 3C4.71001 3 4.82001 3 4.93001 3L6.00001 7.64L5.45001 7.93C4.58001 8.38 3.95001 8.71 4.29001 9.55C4.88315 11.2071 5.83798 12.7113 7.08513 13.9533C8.33228 15.1952 9.84043 16.1438 11.5 16.73C12.28 17.09 12.64 16.41 13.09 15.55L13.36 15L18 16.07L18 16.4Z" fill="#A5BEF7"/>
</svg>
