<svg width="48" height="58" viewBox="0 0 48 58" fill="none" xmlns="http://www.w3.org/2000/svg">
<path d="M26.7134 4.25V16.75C26.7134 18.9591 28.5043 20.75 30.7134 20.75H41.6394M18.4996 26.6842H34.4206M10.9733 26.3947L12.1312 27.5526L15.0259 24.6579M10.9733 35.0789L12.1312 36.2368L15.0259 33.3421M10.9733 43.7632L12.1312 44.9211L15.0259 42.0263M18.4996 35.3684H34.4206M18.4996 44.0526H34.4206M6.28906 56.5H41.7101C43.9192 56.5 45.7101 54.7091 45.7101 52.5V19.4335C45.7101 18.5067 45.3883 17.6086 44.7996 16.8928L33.3411 2.95931C32.5813 2.03538 31.4479 1.5 30.2516 1.5H6.28906C4.07992 1.5 2.28906 3.29086 2.28906 5.5V52.5C2.28906 54.7091 4.07992 56.5 6.28906 56.5Z" stroke="#A5BEF7" stroke-width="3" stroke-linecap="round" stroke-linejoin="round"/>
</svg>
