<svg width="48" height="40" viewBox="0 0 48 40" fill="none" xmlns="http://www.w3.org/2000/svg">
<path d="M10.4286 17.0615C9.87629 17.0615 9.42561 16.6104 9.45181 16.0587C9.78356 9.07486 13.5776 7.66699 15.0939 7.38318C15.4709 7.31261 15.8204 7.09214 15.9873 6.74683L18.1631 2.24683C18.4842 1.58278 18.0005 0.811523 17.2629 0.811523H12.5714C5.62572 0.811523 0 9.87902 0 17.0615V38.8115C0 39.3638 0.447715 39.8115 1 39.8115H21C21.5523 39.8115 22 39.3638 22 38.8115V18.0615C22 17.5092 21.5523 17.0615 21 17.0615H10.4286Z" fill="#A5BEF7"/>
<path d="M36.4286 17.0615C35.8763 17.0615 35.4256 16.6104 35.4518 16.0587C35.7836 9.07486 39.5776 7.66699 41.0939 7.38318C41.4709 7.31261 41.8204 7.09214 41.9873 6.74683L44.1631 2.24683C44.4842 1.58278 44.0005 0.811523 43.2629 0.811523H38.5714C31.6257 0.811523 26 9.87902 26 17.0615V38.8115C26 39.3638 26.4477 39.8115 27 39.8115H47C47.5523 39.8115 48 39.3638 48 38.8115V18.0615C48 17.5092 47.5523 17.0615 47 17.0615H36.4286Z" fill="#A5BEF7"/>
</svg>
